<svg width="500" height="500" viewBox="0 0 500 500" fill="none" xmlns="http://www.w3.org/2000/svg">
<path d="M479.9 101.9H20V398.2H479.9V101.9Z" fill="#0066FF"/>
<path d="M480 101.9V398.2H19.9996V101.9H480ZM480 100.5H19.9996C19.1996 100.5 18.5996 101.1 18.5996 101.9V398.2C18.5996 399 19.1996 399.6 19.9996 399.6H480C480.8 399.6 481.4 399 481.4 398.2V101.9C481.4 101.1 480.8 100.5 480 100.5Z" fill="#231F20"/>
<path d="M269.8 265.5C259.8 265.5 249.8 264.7 239.9 262.9C227.7 260.7 215.6 256.8 204 253.1L198.8 251.5C140.5 233.1 80.6002 220.1 20.0002 212.6C19.6002 212.6 19.3002 212.2 19.4002 211.8C19.4002 211.4 19.8002 211.1 20.2002 211.2C80.9002 218.7 140.9 231.8 199.2 250.1L204.4 251.7C216 255.4 228 259.2 240.2 261.4C277.6 268.3 315.8 260.2 348.3 251.5C356.7 249.2 365.3 246.8 373.5 244.4C400 236.8 427.3 228.9 455.1 225.9C462.7 225.1 471.6 224.5 480.1 226.4C480.5 226.5 480.7 226.9 480.6 227.2C480.5 227.5 480.1 227.8 479.8 227.7C471.5 225.9 462.8 226.5 455.3 227.2C427.7 230.2 400.4 238 373.9 245.6C365.6 248 357.1 250.4 348.6 252.7C324.6 259.4 297.5 265.5 269.8 265.5Z" fill="#D1D3D4"/>
<path d="M291 261.2C290.8 261.2 290.5 261.1 290.4 260.9C290.2 260.6 290.2 260.1 290.6 259.9C304.4 250.7 313.5 235.9 319.8 224L320.3 223C323.2 217.6 326.2 211.9 331.2 208.2C337.3 203.6 345.5 202.7 352 201.9L369.3 199.9C379.9 198.7 390.9 197.4 401.7 199.3C420.2 202.6 435.6 214.8 449.2 225.5C449.5 225.7 449.6 226.2 449.3 226.5C449.1 226.8 448.6 226.9 448.3 226.6C434.8 215.9 419.6 203.9 401.4 200.6C390.8 198.7 380 200 369.4 201.2L352.1 203.2C345.4 204 337.7 204.9 331.9 209.2C327.2 212.7 324.2 218.2 321.4 223.5L320.9 224.5C314.4 236.5 305.2 251.4 291.2 260.9C291.3 261.1 291.1 261.2 291 261.2Z" fill="#D1D3D4"/>
<path d="M242.3 262.4H242.2C241.8 262.3 241.6 261.9 241.7 261.6C242.7 257.3 245.5 253.6 249.4 251.5C252.9 249.4 257.1 248.8 261 249.7C261.2 246.8 262.5 244.2 264.6 242.2C266.8 240.1 269.7 239 272.7 239.1C274.8 234.5 279.1 229.5 285.2 228.7C290.6 228 295.6 231.7 297.1 237.3C302.7 233.7 308.5 233.9 312.8 237.9C313.1 238.2 313.1 238.6 312.8 238.9C312.5 239.2 312.1 239.2 311.8 238.9C306 233.5 299.5 237.1 297 239C296.8 239.1 296.6 239.2 296.3 239.1C296.1 239 295.9 238.8 295.9 238.6C294.9 233.2 290.3 229.5 285.3 230.1C279.6 230.8 275.6 235.7 273.8 240.1C273.7 240.4 273.4 240.6 273.1 240.5C267.6 240.1 262.9 244.2 262.5 249.7C262.5 250 262.5 250.2 262.5 250.5C262.5 250.7 262.4 251 262.2 251.1C262 251.2 261.8 251.3 261.5 251.2C253.6 249 245.4 253.6 243.2 261.5C243.2 261.6 243.2 261.7 243.1 261.7C242.9 262.2 242.6 262.4 242.3 262.4Z" fill="#D1D3D4"/>
<path d="M72.9007 220.1C72.7007 220.1 72.6007 220.1 72.5007 220C70.7007 218.6 70.7007 216.1 70.8007 214C70.8007 213.6 70.8007 213.1 70.8007 212.7C70.4007 206.5 65.0007 201.8 58.8007 202.2C58.1007 202.2 57.4007 202.4 56.7007 202.5C56.4007 202.6 56.1007 202.5 55.9007 202.3C55.7007 202.1 55.7007 201.8 55.8007 201.5C57.8007 198 56.5007 192.9 53.0007 190C48.8007 186.6 43.3007 186.8 40.4007 187.2C40.2007 187.2 39.9007 187.2 39.8007 187C39.6007 186.8 39.6007 186.6 39.6007 186.4C40.5007 181.9 39.0007 177.2 35.5007 174.1C31.9007 171.1 27.0007 170.3 22.7007 171.9C22.3007 172 21.9007 171.9 21.8007 171.5C21.7007 171.1 21.8007 170.7 22.2007 170.6C27.0007 168.8 32.5007 169.7 36.5007 173C40.1007 176.2 41.9007 181 41.2007 185.7C44.5007 185.4 49.8007 185.5 54.0007 188.8C57.6007 191.7 59.2007 196.8 57.8007 200.7C61.1007 200.2 64.4007 201 67.0007 203C70.2007 205.2 72.1007 208.7 72.2007 212.6C72.2007 213 72.2007 213.5 72.2007 214C72.1007 216 72.0007 217.9 73.3007 218.8C73.6007 219 73.7007 219.5 73.4007 219.8C73.4007 220.1 73.1007 220.1 72.9007 220.1Z" fill="#D1D3D4"/>
<path d="M316.5 298.8C315.8 298.8 315.1 298.8 314.4 298.8C314 298.8 313.7 298.5 313.7 298.1C313.7 297.7 314 297.4 314.4 297.4C332 297.8 349.4 293.3 364.7 284.5C365 284.3 365.5 284.4 365.7 284.7C365.9 285 365.8 285.5 365.5 285.7C365.5 285.7 365.5 285.7 365.4 285.7C350.5 294.3 333.6 298.8 316.5 298.8Z" fill="#D1D3D4"/>
<path d="M246.1 325.5C241.2 325.5 236.3 325 231.5 323.9C231.1 323.9 230.8 323.5 230.9 323.1C230.9 322.7 231.3 322.4 231.7 322.5H231.8C240.3 324.3 249 324.5 257.6 323C258 322.9 258.4 323.1 258.5 323.5C258.6 323.9 258.4 324.3 258 324.4C257.9 324.4 257.9 324.4 257.8 324.4C254 325.1 250.1 325.5 246.1 325.5Z" fill="#D1D3D4"/>
<path d="M296.7 214.2C296.3 214.2 296 213.9 296 213.5C296 210 295.9 206.1 297.5 202.6C298.8 199.5 301.9 196.5 305.8 196.4C306.4 187.9 313 181.1 321.5 180.2C317.7 171.1 322 160.6 331.2 156.8C333.6 155.8 336.2 155.3 338.9 155.5C336.8 150.3 339.3 144.4 344.5 142.3C347.1 141.3 350 141.3 352.6 142.5C357.8 135.8 367 133.8 374.6 137.5C375.9 135.4 377.9 133.9 380.2 133.2C382.7 132.3 385.5 132.5 387.9 133.6C388.2 133.8 388.3 134.2 388.1 134.6C387.9 134.9 387.6 135 387.2 134.9C382.9 132.9 377.8 134.6 375.5 138.8C375.4 139 375.3 139.1 375.1 139.2C374.9 139.3 374.7 139.2 374.6 139.1C367.8 135 358 137.2 353.5 143.8C353.3 144.1 352.9 144.2 352.6 144C348.4 141.7 343.1 143.3 340.7 147.5C339.3 150.1 339.3 153.3 340.7 155.9C340.9 156.2 340.7 156.7 340.4 156.8C340.3 156.9 340.1 156.9 340 156.9C330.9 155.9 322.8 162.4 321.7 171.4C321.3 174.5 321.9 177.7 323.3 180.5C323.4 180.7 323.4 181 323.3 181.2C323.2 181.4 323 181.5 322.7 181.5C314.3 181.8 307.6 188.7 307.4 197.1C307.4 197.3 307.3 197.5 307.2 197.6C307.1 197.7 306.9 197.8 306.7 197.8C303.3 197.5 300.3 200.2 299.1 203.1C297.7 206.3 297.7 210.1 297.8 213.4C297.5 213.8 297.2 214.1 296.7 214.2C296.8 214.1 296.8 214.1 296.7 214.2Z" fill="#D1D3D4"/>
<path d="M321.7 243.2C321.5 243.2 321.4 243.2 321.3 243.1C321 242.9 320.9 242.4 321.1 242.1C326.7 234.6 331.2 226.3 334.4 217.5C334.5 217.1 334.9 216.9 335.3 217.1C335.7 217.2 335.9 217.6 335.7 218C332.4 226.9 327.9 235.4 322.2 243C322.1 243.1 321.9 243.2 321.7 243.2Z" fill="#D1D3D4"/>
<path d="M348.6 239.3C348.5 239.3 348.4 239.3 348.3 239.2C347.9 239.1 347.8 238.6 347.9 238.3C350.5 232.4 352.6 226.2 354.2 220C354.3 219.6 354.7 219.4 355 219.5C355.4 219.6 355.6 220 355.5 220.3C353.9 226.6 351.8 232.8 349.1 238.8C349.2 239.1 348.9 239.3 348.6 239.3Z" fill="#D1D3D4"/>
<path d="M196.2 283.8C196.2 284.2 196.1 284.5 196 284.9C195.6 287 194.2 291.3 189.9 292.4L190.4 295.4C190.4 295.4 199.7 290.8 199.8 282.2" fill="white"/>
<path d="M190.5 296.2C190.2 296.2 189.9 296 189.8 295.6L189.3 292.6C189.2 292.2 189.5 291.9 189.8 291.8C193.6 290.8 194.9 287 195.4 284.8C195.5 284.5 195.5 284.1 195.6 283.8C195.6 283.4 196 283.1 196.4 283.2C196.8 283.2 197.1 283.6 197 284C197 284 197 284.5 196.8 285.2C196.4 287.1 195 291.6 190.8 293.1L191 294.5C193.2 293.2 199.1 289 199.2 282.4C199.2 282 199.5 281.7 199.9 281.7C200.3 281.7 200.6 282 200.6 282.4C200.5 291.4 191.2 296 190.8 296.2C190.7 296.1 190.6 296.2 190.5 296.2Z" fill="#231F20"/>
<path d="M198.8 282.2C198.8 282.2 203.7 283.4 207.4 282.2C211.1 281 213.6 273.5 213.8 272.3C214 271.1 212.8 267.5 212.8 267.5L198.7 272.8L198.4 282.7" fill="#231F20"/>
<path d="M203.501 283.5C202.001 283.5 200.601 283.4 199.201 283.1C199.101 283.4 198.801 283.5 198.501 283.5C198.101 283.5 197.801 283.2 197.801 282.8L198.101 272.9C198.101 272.6 198.301 272.4 198.501 272.3L212.601 267C212.801 266.9 213.001 266.9 213.201 267C213.401 267.1 213.501 267.2 213.601 267.4C213.801 268 214.801 271.3 214.601 272.6C214.401 273.6 211.901 281.7 207.701 283C206.301 283.3 204.901 283.5 203.501 283.5ZM199.201 281.6C200.301 281.8 204.201 282.5 207.101 281.6C210.401 280.6 212.901 273.4 213.101 272.3C213.001 271 212.801 269.7 212.401 268.5L199.501 273.4L199.201 281.6Z" fill="#231F20"/>
<path d="M176.701 308.3C176.701 308.3 171.201 303.1 171.101 301.1C171.001 299.1 171.201 298.7 172.701 294.8C172.701 294.8 182.701 289.5 185.101 288.6C187.501 287.7 190.501 285.7 191.901 286.4C193.401 287.2 194.001 289 193.301 290.5V290.6C192.501 292.6 192.201 293.5 192.201 293.5C194.201 294.7 195.701 296.7 196.401 298.9C197.501 302.7 196.401 310.9 196.401 310.9C196.401 310.9 182.301 312.3 176.701 308.3Z" fill="#231F20"/>
<path d="M191.4 311.9C186.7 311.9 179.9 311.4 176.3 308.9L176.2 308.8C175.3 307.9 170.5 303.3 170.4 301.2C170.3 299.1 170.5 298.6 171.7 295.3L172 294.6C172.1 294.4 172.2 294.3 172.3 294.2C172.7 294 182.4 288.8 184.8 288C185.6 287.7 186.4 287.4 187.1 287C189 286.1 190.9 285.2 192.1 285.9C194 286.9 194.7 289.1 193.7 291C193.2 292.1 193 292.9 192.8 293.3C194.7 294.6 196.2 296.6 196.9 298.8C198 302.7 197 310.7 196.9 311C196.9 311.3 196.6 311.6 196.3 311.6C196.2 311.8 194.2 311.9 191.4 311.9ZM177.2 307.8C181.9 311.1 193.1 310.6 195.8 310.4C196 308.5 196.6 302.3 195.7 299.3C195.1 297.2 193.7 295.4 191.8 294.3C191.5 294.1 191.4 293.8 191.5 293.5C191.5 293.5 191.8 292.6 192.6 290.5C193.3 289.4 192.9 287.9 191.7 287.2L191.6 287.1C191 286.8 189.3 287.6 187.9 288.2C187.1 288.6 186.2 289 185.4 289.3C183.3 290.1 174.8 294.5 173.3 295.3L173.1 295.8C171.9 299 171.7 299.4 171.8 301.1C171.9 302.2 175 305.7 177.2 307.8Z" fill="#231F20"/>
<path d="M219.7 257.3L215.8 259.7C215.8 259.7 213.7 255.6 213.9 255.5C214.1 255.4 218.8 253.2 218.8 253.2C218.8 253.2 221.3 253.6 219.7 257.3Z" fill="#231F20"/>
<path d="M215.801 260.4C215.701 260.4 215.701 260.4 215.601 260.4C215.401 260.3 215.301 260.2 215.201 260C212.801 255.5 213.001 255.3 213.401 254.9C213.501 254.8 213.701 254.7 218.501 252.5C218.601 252.5 218.801 252.5 218.901 252.5C219.601 252.6 220.301 253.1 220.701 253.8C221.201 254.8 221.101 256.1 220.401 257.7C220.301 257.8 220.201 258 220.101 258L216.201 260.4C216.001 260.4 215.901 260.4 215.801 260.4ZM214.701 255.8C215.001 256.4 215.501 257.6 216.101 258.7L219.201 256.8C219.601 256.1 219.701 255.2 219.401 254.4C219.301 254.2 219.101 254 218.801 253.9C217.401 254.6 215.501 255.4 214.701 255.8Z" fill="#231F20"/>
<path d="M171.101 266.9L204.601 250.9L215.201 252.5L180.301 268.8L171.101 266.9Z" fill="white"/>
<path d="M180.3 269.5H180.2L171 267.6C170.7 267.5 170.5 267.3 170.4 267C170.4 266.7 170.5 266.4 170.8 266.3L204.3 250.2C204.4 250.1 204.6 250.1 204.7 250.1L215.3 251.7C215.6 251.7 215.8 252 215.9 252.3C215.9 252.6 215.8 252.9 215.5 253L180.6 269.3C180.5 269.5 180.4 269.5 180.3 269.5ZM173.3 266.7L180.2 268.1L212.8 252.8L204.7 251.6L173.3 266.7Z" fill="#231F20"/>
<path d="M203.4 336.4C203.4 336.4 200 313.8 197.1 308.3C197.1 308.3 189.7 302.5 176.8 308.3L175 335.1C174.9 335.2 199.7 333.5 203.4 336.4Z" fill="#68E1FD"/>
<path d="M197 303.4C196.9 303 191.5 292.8 188.6 293.9C186.7 294.8 185.1 296.2 184 298L196.5 307L197 303.4Z" fill="#F4A28C"/>
<path d="M196.4 307.7C196.3 307.7 196.1 307.7 196 307.6L183.5 298.6C183.2 298.4 183.1 298 183.3 297.7C184.5 295.7 186.2 294.2 188.3 293.3C188.9 293.1 189.6 293.2 190.2 293.5C193.4 295 197.5 302.9 197.6 303.3C197.6 303.4 197.6 303.5 197.6 303.6L197 307.2C197 307.4 196.8 307.6 196.6 307.7C196.6 307.7 196.5 307.7 196.4 307.7ZM184.9 297.8L195.9 305.8L196.2 303.6C195.3 301.6 190.6 293.9 188.7 294.6C187.2 295.2 185.8 296.4 184.9 297.8Z" fill="#231F20"/>
<path d="M156 279.3C163.6 272.8 166.1 270.7 171.1 266.9C171.1 266.9 177.3 265.4 181.8 266.9C181.8 266.9 183.4 291.1 181.8 292.5C180.2 293.9 169.3 303.4 169.2 303.7L158.5 320L144.3 316.7L138 282.3C138 282.5 152.1 279.2 156 279.3Z" fill="white"/>
<path d="M158.4 320.8H158.2L144 317.5C143.7 317.4 143.5 317.2 143.5 316.9L137.3 282.5C137.2 282.1 137.5 281.8 137.8 281.7C138.4 281.6 151.2 278.5 155.6 278.5H155.7C163 272.2 165.6 270.1 170.6 266.3C170.7 266.2 170.8 266.2 170.9 266.2C171.2 266.1 177.3 264.6 182 266.2C182.3 266.3 182.5 266.5 182.5 266.8C183 274.2 184 291.5 182.3 293L180 295C176.9 297.7 170.5 303.3 169.9 304L159 320.5C158.9 320.7 158.7 320.8 158.4 320.8ZM144.9 316.3L158.1 319.3L168.6 303.4C168.9 302.9 170.5 301.5 179 294.1C180.1 293.1 180.9 292.4 181.3 292.1C182.1 290.9 181.8 278.8 181.1 267.5C177.2 266.4 172.2 267.4 171.3 267.6C166.3 271.4 163.8 273.6 156.3 279.9C156.2 280 156 280.1 155.8 280.1C152.5 280 141.5 282.4 138.7 283.1L144.9 316.3Z" fill="#231F20"/>
<path d="M181.801 266.9L215.201 252.4L215.601 266.6L201.301 274.4C201.301 274.4 200.201 282.7 199.301 283.8C198.401 284.9 179.601 294.5 179.601 294.5L181.801 266.9Z" fill="white"/>
<path d="M179.6 295.2C179.5 295.2 179.3 295.2 179.2 295.1C179 295 178.9 294.7 178.9 294.5L181.1 266.9C181.1 266.6 181.3 266.4 181.5 266.3L214.9 251.8C215.1 251.7 215.4 251.7 215.5 251.9C215.7 252 215.8 252.2 215.8 252.5L216.2 266.7C216.2 267 216.1 267.2 215.8 267.3L201.8 274.9C201.5 277.2 200.6 283.2 199.7 284.3C198.8 285.4 184.2 292.9 179.8 295.2C179.8 295.2 179.7 295.2 179.6 295.2ZM182.4 267.4L180.3 293.3C187.4 289.7 197.9 284.2 198.7 283.4C199.1 282.8 200 278.3 200.6 274.4C200.6 274.2 200.8 274 201 273.9L215 266.4L214.6 253.6L182.4 267.4Z" fill="#231F20"/>
<path d="M184.001 282.4C183.601 282.4 183.301 282.1 183.301 281.7C183.301 281.4 183.501 281.2 183.701 281.1L199.601 273.5C200.001 273.3 200.401 273.5 200.501 273.8C200.601 274.1 200.501 274.6 200.201 274.7L184.301 282.3C184.201 282.4 184.101 282.4 184.001 282.4Z" fill="#D1D3D4"/>
<path d="M188.451 285.376C188.544 284.109 187.994 283.036 187.223 282.979C186.452 282.923 185.752 283.904 185.659 285.171C185.566 286.437 186.115 287.51 186.886 287.567C187.658 287.624 188.358 286.642 188.451 285.376Z" fill="#D1D3D4"/>
<path d="M185.9 278C185.5 278 185.2 277.7 185.2 277.3V274.6C185.2 274.2 185.5 273.9 185.9 273.9C186.3 273.9 186.6 274.2 186.6 274.6V277.3C186.6 277.7 186.3 278 185.9 278Z" fill="#D1D3D4"/>
<path d="M188.6 276.6C188.2 276.6 187.9 276.3 187.9 275.9V273.2C187.9 272.8 188.2 272.5 188.6 272.5C189 272.5 189.3 272.8 189.3 273.2V275.9C189.2 276.3 188.9 276.6 188.6 276.6Z" fill="#D1D3D4"/>
<path d="M213.4 273.9C213.3 274 209 274.8 207.7 273.9C206.9 273.5 206.4 272.8 206.2 271.9C206.2 271.9 208 268.6 208.2 267C208.4 265.4 207.8 264.4 207.9 263.7C208 263 209 260.6 210 260.7C211 260.8 213.1 263.5 214.1 264.4C215.1 265.3 215.2 265.4 215.5 266C215.8 266.6 215.1 272.4 213.4 273.9Z" fill="#F4A28C"/>
<path d="M210 275C209 275.1 208.1 274.9 207.2 274.5C206.3 274 205.6 273.1 205.4 272C205.4 271.9 205.4 271.7 205.5 271.6C206.3 270.2 207 268.6 207.4 267C207.5 266.3 207.4 265.7 207.2 265C207.1 264.6 207 264.1 207.1 263.6C207.2 263.1 208.2 259.8 210 260C210.9 260.1 212 261.3 213.6 262.9C214 263.3 214.3 263.6 214.5 263.9L214.7 264.1C215.2 264.5 215.7 265.1 216 265.7C216.5 266.7 215.8 272.7 213.9 274.3C212.6 274.9 211.3 275.1 210 275ZM206.9 272C207.1 272.5 207.5 273 208 273.3C208.9 273.9 212.2 273.5 213 273.3C214.4 271.9 214.9 267.1 214.7 266.4C214.5 266 214.5 266 213.7 265.3L213.5 265.1C213.2 264.9 212.9 264.5 212.5 264.1C211.8 263.3 210.3 261.7 209.8 261.6C209.1 262.3 208.7 263.1 208.5 264C208.5 264.3 208.5 264.6 208.6 264.9C208.8 265.7 208.9 266.5 208.8 267.3C208.4 268.9 207.8 270.5 206.9 272Z" fill="#231F20"/>
<path d="M209.101 254.5L209.501 242.4L200.801 241V253.4L202.701 253.5L202.601 242.7L207.901 243.8L207.201 254.2L209.101 254.5Z" fill="#231F20"/>
<path d="M209.101 255.2L207.101 255C206.701 255 206.501 254.6 206.501 254.2L207.101 244.4L203.301 243.6L203.401 253.5C203.401 253.7 203.301 253.9 203.201 254C203.101 254.1 202.901 254.2 202.701 254.2L200.801 254.1C200.401 254.1 200.101 253.8 200.101 253.4V241C200.101 240.8 200.201 240.6 200.301 240.5C200.501 240.4 200.701 240.3 200.901 240.3L209.601 241.7C209.901 241.8 210.201 242.1 210.201 242.4L209.801 254.5C209.801 254.7 209.701 254.9 209.601 255C209.501 255.1 209.301 255.2 209.101 255.2ZM207.901 253.6L208.401 253.7L208.701 243L201.401 241.9V252.8H201.901L201.801 242.8C201.801 242.6 201.901 242.4 202.101 242.2C202.301 242.1 202.501 242 202.701 242.1L208.001 243.2C208.301 243.3 208.601 243.6 208.601 243.9L207.901 253.6Z" fill="#231F20"/>
<path d="M216.301 253.7L221.501 251C221.501 251 225.701 251.4 224.201 255.5L219.001 258.5C219.001 258.5 220.001 253.7 216.301 253.7Z" fill="white"/>
<path d="M219 259.1C218.8 259.1 218.7 259 218.6 259C218.4 258.8 218.3 258.6 218.3 258.3C218.4 257.7 218.6 256 217.9 255.1C217.5 254.7 216.9 254.4 216.3 254.5C216 254.5 215.7 254.3 215.6 254C215.5 253.7 215.7 253.4 216 253.2L221.2 250.5C221.3 250.4 221.5 250.4 221.6 250.4C222.9 250.5 224 251.2 224.8 252.2C225.4 253.3 225.4 254.7 224.9 255.8C224.8 256 224.7 256.1 224.6 256.2L219.3 259.2C219.2 259.1 219.1 259.1 219 259.1ZM218.2 253.5C218.5 253.7 218.7 253.9 218.9 254.1C219.5 255 219.8 256 219.8 257.1L223.7 254.9C224 254.2 224 253.4 223.6 252.8C223.1 252.2 222.4 251.8 221.6 251.7L218.2 253.5Z" fill="#231F20"/>
<path d="M159.1 284.9C159.1 284.9 158.2 319.5 158.4 320.1C158.6 320.7 144.2 316.8 144.2 316.8L137.9 282.4C138 282.5 153 281.8 159.1 284.9Z" fill="white"/>
<path d="M158.3 320.8C157.2 320.8 154.1 320.2 144.1 317.5C143.8 317.4 143.6 317.2 143.6 316.9L137.4 282.5C137.4 282.3 137.4 282.1 137.5 281.9C137.6 281.7 137.8 281.7 138 281.6C138.6 281.6 153.2 281 159.4 284.1C159.6 284.2 159.8 284.5 159.8 284.7C159.4 298.2 159 318.7 159.1 319.7C159.2 319.9 159.1 320.2 158.9 320.3C158.9 320.7 158.8 320.8 158.3 320.8ZM144.9 316.3C150.1 317.7 155.9 319.1 157.8 319.4C157.8 316.2 158 304.8 158.5 285.4C153.2 283 142 283.1 138.9 283.2L144.9 316.3Z" fill="#231F20"/>
<path d="M159.101 284.9L165.301 282.7C165.301 282.7 177.401 269.5 181.701 266.9" fill="white"/>
<path d="M159.1 285.6C158.8 285.6 158.5 285.4 158.4 285.1C158.3 284.7 158.5 284.3 158.8 284.2L164.9 282.1C166.3 280.6 177.2 268.8 181.3 266.3C181.6 266.1 182.1 266.2 182.3 266.5C182.5 266.8 182.4 267.2 182.1 267.5C182.1 267.5 182.1 267.5 182 267.5C177.8 270 165.8 283 165.7 283.2C165.6 283.3 165.5 283.3 165.4 283.4L159.2 285.6C159.3 285.6 159.2 285.6 159.1 285.6Z" fill="#231F20"/>
<path d="M185.001 269.5C184.601 269.5 184.301 269.2 184.301 268.8C184.301 268.5 184.501 268.3 184.701 268.2L212.701 255.7C213.001 255.5 213.501 255.7 213.601 256C213.801 256.4 213.601 256.8 213.301 256.9L185.301 269.4C185.201 269.5 185.101 269.5 185.001 269.5Z" fill="#D1D3D4"/>
<path d="M164.6 291.8C164.2 291.8 163.9 291.5 163.9 291.1C163.9 290.8 164 290.6 164.3 290.5L177.2 283.4C177.5 283.2 178 283.3 178.1 283.7C178.3 284 178.2 284.5 177.8 284.7L164.9 291.8C164.8 291.8 164.7 291.8 164.6 291.8Z" fill="#D1D3D4"/>
<path d="M169.6 233.3C169.6 233.3 171.9 247.5 170.3 249C168.7 250.5 163.4 249.8 163.4 249.8" fill="#F4A28C"/>
<path d="M166 250.6C165.1 250.6 164.2 250.5 163.2 250.4C162.8 250.4 162.5 250 162.6 249.6C162.6 249.2 163 248.9 163.4 249C165.3 249.2 168.8 249.3 169.7 248.4C170.5 247.5 169.8 239.9 168.8 233.4C168.7 233 169 232.7 169.4 232.6C169.8 232.5 170.1 232.8 170.2 233.2C170.9 237.6 172.3 247.9 170.7 249.5C169.8 250.4 167.7 250.6 166 250.6Z" fill="#231F20"/>
<path d="M136.7 280.2C138.1 273.1 140 266.2 142.5 259.4C142.5 259.4 150.2 265.9 157.7 261.6C165.2 257.3 174.6 224 173.9 219.3C173.2 214.6 131.1 208.2 123.9 217.9C116.7 227.6 107.7 274.9 107.7 274.9C107.7 274.9 123.6 293.3 136.7 280.2Z" fill="#F4A28C"/>
<path d="M126.2 285.6H125.7C115.9 285.2 107.6 275.8 107.2 275.4C107.1 275.2 107 275 107 274.8C107.4 272.9 116.1 227.2 123.3 217.5C129.1 209.7 154.4 212.1 166 214.9C174.2 216.9 174.5 218.7 174.5 219.2C175.3 224 165.8 257.7 158 262.2C151.6 265.9 145 262.1 142.8 260.5C140.5 267 138.7 273.6 137.4 280.3C137.4 280.4 137.3 280.6 137.2 280.7C134.3 283.8 130.3 285.6 126.2 285.6ZM108.4 274.7C109.8 276.2 117.3 283.9 125.6 284.2C129.5 284.3 133.3 282.7 135.9 279.9C137.3 272.9 139.2 266 141.7 259.2C141.8 259 142 258.8 142.2 258.8C142.4 258.7 142.7 258.8 142.8 258.9C142.9 259 150.2 265 157.2 261C160.2 259.2 164.3 251.5 168.1 240.3C171.4 230.5 173.4 221.4 173.1 219.4C173 219 171.6 217.7 165.6 216.2C151.6 212.7 129.2 211.8 124.3 218.3C117.7 227.3 109.3 270.4 108.4 274.7Z" fill="#231F20"/>
<path d="M145.2 279.9C145.2 279.9 120.3 263.5 99.7004 267.5C79.1004 271.5 59.8004 298.8 58.4004 311.2C57.0004 323.6 68.2004 398.1 68.2004 398.1H158C158 398.1 166.7 347.2 167.1 335.3C167.5 323.4 152 288.7 145.2 279.9Z" fill="#68E1FD"/>
<path d="M193.601 381.4C178.401 383.2 138.501 340.8 138.501 340.8C128.101 353.9 114.001 357.2 102.101 354.7C93.0008 352.8 85.2008 347.6 81.6008 340.8C73.3008 325.2 79.4008 295.2 95.7008 281.7C101.901 276.5 109.601 273.4 117.701 272.9C121.701 272.6 125.801 273 129.701 274.1C159.801 278.1 161.201 311.4 161.201 311.4L180.801 332.4C188.401 328.7 197.401 330.4 203.301 336.4C204.101 344.8 208.801 379.5 193.601 381.4Z" fill="#F4A28C"/>
<path d="M192.6 382.1C177.4 382.1 143.5 347 138.5 341.8C129.2 353.1 115.6 358.2 102 355.4C92.6003 353.5 84.8003 348.1 81.0003 341.1C72.1003 324.5 79.3003 294.3 95.3003 281.2C101.6 275.9 109.5 272.8 117.7 272.3C121.8 272 126 272.4 129.9 273.5C158.7 277.3 161.7 308 161.9 311.2L181 331.7C194.5 325.8 203.7 335.9 203.8 336.1C203.9 336.2 204 336.4 204 336.5C204.1 337.1 204.1 337.9 204.2 338.8C205.3 350.2 208.4 380.5 193.6 382.2C193.3 382.1 193 382.1 192.6 382.1ZM138.5 340.1C138.7 340.1 138.9 340.2 139 340.3C139.4 340.7 178.8 382.4 193.5 380.7C206.9 379.1 204 349.8 202.9 338.8C202.8 338 202.8 337.3 202.7 336.8C197.1 331.1 188.4 329.6 181.2 333.2C180.9 333.3 180.6 333.3 180.4 333L160.8 312C160.7 311.9 160.6 311.7 160.6 311.6C160.6 311.3 158.8 278.8 129.7 274.9C125.8 273.8 121.8 273.4 117.8 273.7C109.8 274.2 102.3 277.2 96.1003 282.3C80.6003 295 73.5003 324.4 82.1003 340.4C85.6003 347 93.3003 352.2 102.1 354C115.6 356.8 128.6 351.8 137.8 340.3C138 340.2 138.2 340.1 138.5 340.1Z" fill="#231F20"/>
<path d="M145.101 347.5C145.501 347.9 166.301 335.3 168.401 319C172.601 323 176.501 327.2 180.201 331.6C180.201 331.6 171.801 359.7 154.201 356.2L145.101 347.5Z" fill="#231F20"/>
<path d="M157.1 357.2C156.1 357.2 155 357.1 154 356.9C153.9 356.9 153.8 356.8 153.7 356.7L144.6 348C144.3 347.7 144.3 347.3 144.6 347C144.7 346.9 144.9 346.8 145 346.8C146.7 346.1 165.7 334.4 167.7 318.9C167.7 318.6 167.9 318.4 168.2 318.3C168.4 318.2 168.7 318.3 168.9 318.4C173.1 322.4 177 326.7 180.7 331.1C180.8 331.3 180.9 331.5 180.8 331.7C179.2 336.6 177 341.2 174.3 345.5C169.3 353.3 163.4 357.2 157.1 357.2ZM154.5 355.6C170 358.5 178.3 335 179.4 331.8C176.1 327.8 172.6 324 168.9 320.5C166.2 334.7 150.4 345.5 146.3 347.7L154.5 355.6Z" fill="#231F20"/>
<path d="M196.001 347.9C195.801 347.9 195.601 347.8 195.501 347.7L180.401 332.9C180.101 332.6 180.101 332.2 180.401 331.9C180.701 331.6 181.101 331.6 181.401 331.9L196.501 346.7C196.801 347 196.801 347.4 196.501 347.7C196.401 347.8 196.201 347.9 196.001 347.9Z" fill="#231F20"/>
<path d="M138.5 341.5C138.3 341.5 138 341.4 137.9 341.2C137.8 341.1 131.7 331.8 121 328.5C114.9 326.5 108.6 325.6 102.2 325.9C101.8 325.9 101.5 325.7 101.4 325.3C101.4 324.9 101.6 324.6 102 324.5C102.3 324.5 110.2 323.8 121.3 327.2C132.4 330.6 138.7 340 139 340.4C139.2 340.7 139.1 341.2 138.8 341.4C138.7 341.4 138.6 341.5 138.5 341.5Z" fill="#231F20"/>
<path d="M152.301 349C142.101 350.5 132.601 355.3 125.301 362.5C125.301 362.5 148.201 366.9 152.301 349Z" fill="#231F20"/>
<path d="M131 363.7C129 363.7 127.1 363.6 125.1 363.2C124.7 363.1 124.5 362.8 124.5 362.4C124.5 362.3 124.6 362.1 124.7 362C132.2 354.6 141.8 349.8 152.2 348.3C152.4 348.3 152.6 348.4 152.8 348.5C153 348.7 153 348.9 153 349.1C150.1 361.7 138.3 363.7 131 363.7ZM126.8 362.1C130.3 362.5 133.8 362.4 137.2 361.8C144.8 360.4 149.6 356.4 151.4 349.9C142.2 351.5 133.6 355.8 126.8 362.1Z" fill="#231F20"/>
<path d="M152.3 349C152.3 349 147.2 362.3 150.9 373.2C150.9 373.2 164.1 372.7 152.3 349Z" fill="#231F20"/>
<path d="M150.9 373.9C150.6 373.9 150.3 373.7 150.2 373.4C146.5 362.4 151.4 349.3 151.7 348.8C151.8 348.5 152 348.4 152.3 348.3C152.6 348.3 152.8 348.4 153 348.7C158 358.7 159.3 366 156.7 370.3C155.4 372.4 153.3 373.7 150.9 373.9ZM152.4 350.9C151.2 354.6 148.8 364.2 151.3 372.4C153 372.1 154.5 371.1 155.4 369.6C157 367 157.6 361.8 152.4 350.9Z" fill="#231F20"/>
<path d="M135.5 240.6C135.5 240.6 169.1 235.8 175.8 227.2C182.5 218.6 175.8 210.4 175.8 210.4C175.8 210.4 179.4 200.3 160.8 191.6C142.2 182.9 124.6 187.7 114.9 198.4C105.2 209.1 105 241.1 112.7 251.4C120.4 261.7 132.8 252 135.5 240.6Z" fill="#D9B504"/>
<path d="M120.5 256.4C118 256.4 114.9 255.4 112.2 251.7C104.4 241.2 104.3 208.9 114.4 197.8C122.9 188.5 140.2 181.1 161.1 190.9C178.3 198.9 177 208.2 176.6 210.2C177.7 211.8 182.7 219.6 176.4 227.6C169.9 235.9 140.3 240.6 136.1 241.2C134.2 248.5 128.5 254.9 122.7 256.1C121.9 256.3 121.2 256.4 120.5 256.4ZM141.5 187.7C131.6 187.6 122.2 191.6 115.4 198.8C105.9 209.3 105.9 241 113.3 250.9C115.8 254.2 118.9 255.5 122.3 254.8C127.8 253.7 133.1 247.5 134.8 240.4C134.9 240.1 135.1 239.9 135.4 239.9C135.7 239.8 168.8 235 175.3 226.8C181.6 218.8 175.6 211.2 175.3 210.9C175.1 210.7 175.1 210.5 175.2 210.2C175.3 209.8 178.3 200.5 160.6 192.2C154.6 189.3 148.1 187.8 141.5 187.7Z" fill="#231F20"/>
<path d="M119.701 209.2C119.401 210.2 118.801 211.2 118.001 211.9C116.801 212.8 115.101 213.2 113.601 212.7C110.701 212 108.401 209.7 107.801 206.8C107.601 205.4 107.501 204 107.701 202.7C108.001 198.7 110.901 189 116.901 192.7C122.101 195.9 121.501 204.4 119.701 209.2Z" fill="#231F20"/>
<path d="M115.1 213.6C114.6 213.6 114.1 213.5 113.6 213.4C110.4 212.7 107.9 210.2 107.2 207C106.9 205.6 106.9 204.1 107.1 202.7C107.3 200.5 108.7 193.6 112.5 191.7C114.1 190.9 116 191.1 117.4 192.2C123 195.7 122.2 204.6 120.5 209.5C120.1 210.6 119.5 211.7 118.7 212.5C117.6 213.2 116.4 213.6 115.1 213.6ZM114.4 192.6C113.9 192.6 113.5 192.7 113.1 192.9C110.4 194.3 108.8 199.6 108.5 202.8C108.3 204.1 108.4 205.4 108.6 206.7C109.2 209.3 111.3 211.4 113.9 212.1C115.2 212.5 116.6 212.2 117.7 211.4C118.4 210.7 118.9 209.9 119.1 209C120.9 204.2 121.2 196.3 116.6 193.4C115.9 192.9 115.2 192.7 114.4 192.6Z" fill="#231F20"/>
<path d="M102.8 192.8C97.9002 193.4 93.7002 196.5 91.7002 200.9C90.3002 204 90.1002 207.5 89.7002 210.9C88.8002 218.5 87.0002 226 84.2002 233.1C83.2002 236.1 81.7002 238.8 79.6002 241.1C77.4002 243.3 74.2002 244.7 71.2002 244C75.0002 250.1 82.2002 253.5 89.4002 254.3C93.9002 254.8 98.7002 254.4 102.6 252.1C106.3 250 109.4 246.7 111.3 242.9C116.1 232.7 122.1 220.5 119 209C117.1 201.8 111.2 191.9 102.8 192.8Z" fill="#D9B504"/>
<path d="M92.7002 255.2C91.6002 255.2 90.4002 255.1 89.3002 255C81.2002 254.1 74.2002 250.1 70.6002 244.4C70.4002 244.2 70.4002 243.9 70.6002 243.6C70.8002 243.4 71.1002 243.3 71.3002 243.3C74.3002 244 77.3002 242.4 79.0002 240.6C81.0002 238.4 82.5002 235.7 83.4002 232.9C86.2002 225.8 88.0002 218.4 88.9002 210.8L89.1002 209.5C89.3002 206.5 89.9002 203.5 91.0002 200.7C93.1002 196 97.6002 192.7 102.7 192.1C111.6 191.1 117.7 201.6 119.7 208.8C122.7 220.2 117.3 231.7 112.5 241.9L111.9 243.2C109.9 247.2 106.8 250.5 102.9 252.7C99.8002 254.4 96.3002 255.3 92.7002 255.2ZM72.7002 244.9C76.3002 249.6 82.4002 252.8 89.5002 253.6C94.5002 254.2 98.9002 253.5 102.2 251.5C105.8 249.4 108.8 246.3 110.6 242.6L111.2 241.3C115.9 231.3 121.2 220 118.3 209.1C116.5 202.4 110.9 192.7 102.8 193.5C98.2002 194 94.2002 197 92.2002 201.2C91.2002 203.9 90.6002 206.7 90.4002 209.6L90.2002 211C89.3002 218.7 87.4002 226.2 84.6002 233.4C83.6002 236.4 82.0002 239.2 79.8002 241.6C78.1002 243.7 75.5002 244.8 72.7002 244.9Z" fill="#231F20"/>
<path d="M71.2002 290.8C71.2002 290.8 76.5002 298.6 80.9002 300.4Z" fill="white"/>
<path d="M80.9001 301.1C80.8001 301.1 80.7001 301.1 80.6001 301C76.1001 299.1 70.8001 291.4 70.6001 291.1C70.4001 290.8 70.4001 290.3 70.8001 290.1C71.1001 289.9 71.5001 289.9 71.8001 290.2C71.8001 290.3 77.1001 297.9 81.2001 299.6C81.6001 299.7 81.7001 300.2 81.6001 300.5C81.4001 300.9 81.2001 301.1 80.9001 301.1Z" fill="#231F20"/>
<path d="M55.8004 296C52.3004 297.1 49.4004 299.4 47.4004 302.5C42.5004 309.8 41.5004 319 41.8004 327.8C42.3004 346.5 41.0004 365.9 45.1004 384.3C45.3004 385.5 45.7004 386.6 46.3004 387.6C49.1004 391.6 81.0004 394.1 80.6004 390.1C79.6004 378.8 78.6004 355.9 77.6004 344.6C76.4004 332.8 75.9004 320.9 76.0004 309C76.2004 301.9 70.6005 298.4 64.3005 296.3C61.6005 295.2 58.6004 295.2 55.8004 296Z" fill="#231F20"/>
<path d="M71.4004 392.8C61.7004 392.8 47.7004 390.8 45.7004 388C45.0004 386.9 44.6004 385.7 44.4004 384.5C41.2004 370.6 41.2004 356 41.2004 341.8C41.2004 337.2 41.2004 332.4 41.1004 327.8C40.8004 316.5 42.6004 308.3 46.9004 302.1C49.0004 298.9 52.1004 296.5 55.7004 295.3C58.7004 294.4 61.9004 294.5 64.8004 295.5C73.1004 298.3 77.1004 302.7 77.0004 308.9C76.7004 320.1 77.4004 331.2 78.6004 344.4C79.1004 350.1 79.6004 358.8 80.1004 367.2C80.6004 375.6 81.1004 384.3 81.6004 389.9C81.7004 390.5 81.4004 391.3 79.9004 391.9C76.9004 392.6 74.1004 392.9 71.4004 392.8ZM56.0004 296.7C52.7004 297.8 49.9004 300 48.0004 302.9C44.0004 308.9 42.2004 316.8 42.5004 327.8C42.6004 332.4 42.6004 337.2 42.6004 341.8C42.6004 355.9 42.7004 370.4 45.8004 384.2C46.0004 385.3 46.4004 386.3 46.9004 387.2C49.0004 390.2 73.1004 392.8 79.1004 390.6C79.8004 390.4 79.9004 390.1 79.9004 390.1C79.4004 384.4 78.9004 375.7 78.4004 367.3C77.9004 358.9 77.4004 350.2 76.9004 344.5C75.7004 331.3 75.0004 320.1 75.3004 308.8C75.4004 303.2 71.9004 299.4 64.1004 296.8C61.6004 295.9 58.7004 295.8 56.0004 296.7Z" fill="#231F20"/>
<path d="M157.101 241.4C158.501 237.9 158.801 234 158.001 230.3C157.701 229 157.001 227.5 155.701 227.3C154.401 227.1 153.301 228.2 152.501 229.3C150.101 233.2 148.901 237.7 149.101 242.2C149.001 243.4 149.301 244.6 149.801 245.7C150.301 246.8 151.401 247.5 152.701 247.5" fill="#F4A28C"/>
<path d="M152.5 248.2C151.1 248.1 149.8 247.3 149.2 246C148.6 244.8 148.4 243.5 148.4 242.2C148.2 237.5 149.4 232.8 151.9 228.8C153 227.1 154.4 226.3 155.8 226.5C157.2 226.7 158.2 228 158.7 230.1C159.6 233.9 159.3 238 157.8 241.6C157.7 242 157.3 242.2 156.9 242.1C156.5 242 156.3 241.6 156.4 241.2V241.1C157.8 237.7 158.1 234 157.3 230.4C157.1 229.7 156.7 228.1 155.5 227.9C154.3 227.7 153.5 228.9 153 229.6C150.2 233.8 149.7 238.7 149.7 242.1C149.7 243.2 149.9 244.3 150.3 245.3C150.7 246.2 151.6 246.7 152.5 246.7C152.9 246.7 153.2 246.9 153.3 247.3C153.3 247.7 153.1 248 152.7 248.1L152.5 248.2Z" fill="#231F20"/>
<path d="M196 327.8C195.7 327.8 195.4 327.6 195.3 327.2C194.3 322.3 192.4 309.8 192.4 309.6C192.3 309.2 192.5 308.8 192.9 308.8C193.3 308.7 193.7 308.9 193.7 309.3V309.4C193.7 309.5 195.6 322 196.6 326.9C196.7 327.3 196.4 327.6 196 327.7V327.8Z" fill="#231F20"/>
<path d="M151.301 312.2C150.801 312.2 150.301 312 150.001 311.6C148.201 309.9 146.901 307.6 146.601 305.2C144.301 306 141.801 306.1 139.401 305.7C136.201 304.9 133.501 302.5 130.901 298.1C130.001 296.7 129.401 295.1 129.201 293.5C129.101 292.1 129.401 290.6 130.001 289.3C131.001 286.5 132.901 284.1 135.401 282.4C138.101 280.8 141.401 280.7 144.201 282.3C144.501 282.5 144.601 282.9 144.401 283.3C144.201 283.6 143.701 283.7 143.401 283.5C141.101 282.2 138.301 282.2 136.101 283.6C133.801 285.1 132.101 287.2 131.301 289.7C130.801 290.8 130.601 292 130.601 293.3C130.801 294.7 131.301 296.1 132.101 297.3C134.401 301.3 136.901 303.5 139.701 304.2C142.101 304.8 144.701 304.2 147.001 303.5C147.201 303.4 147.401 303.5 147.601 303.6C147.801 303.7 147.901 303.9 147.901 304.1C148.001 306.5 149.101 308.8 150.901 310.4C151.001 310.5 151.101 310.6 151.301 310.6C151.301 310.6 151.301 310.5 151.301 310.3C151.501 308.4 151.201 306.6 150.401 304.9C150.201 304.6 150.301 304.2 150.601 304C150.901 303.8 151.301 303.9 151.501 304.1L153.901 307.1C154.001 307.2 154.101 307.3 154.101 307.3C154.201 307.1 154.301 306.9 154.301 306.7C154.401 305.8 154.301 304.9 154.001 304C153.901 303.8 153.801 303.6 153.701 303.3C153.601 302.9 153.801 302.5 154.201 302.4C154.501 302.3 154.901 302.4 155.001 302.7C155.101 302.9 155.201 303.1 155.301 303.3C155.401 303.5 155.601 303.7 155.701 303.9L156.101 302.6C156.201 302.2 156.601 302 157.001 302.1C157.401 302.2 157.601 302.6 157.501 303L156.801 305.2C156.701 305.6 156.301 305.8 156.001 305.7C155.901 305.7 155.901 305.7 155.801 305.6C155.801 306 155.801 306.4 155.801 306.7C155.701 307.3 155.401 307.9 154.901 308.3C154.601 308.5 154.201 308.6 153.801 308.5C153.401 308.4 153.001 308.1 152.801 307.8L152.601 307.5C152.701 308.4 152.701 309.4 152.601 310.3C152.601 310.9 152.301 311.4 151.801 311.7C151.601 312.2 151.501 312.2 151.301 312.2Z" fill="#D1D3D4"/>
<path d="M141.5 298.1C141.4 298.1 141.3 298.1 141.3 298.1C140.9 298 140.8 297.6 140.9 297.2C141.8 294.7 142.6 292.2 143.1 289.6C143.2 289.2 143.5 289 143.9 289.1C144.3 289.2 144.5 289.5 144.5 289.9C144 292.6 143.2 295.2 142.2 297.7C142 297.9 141.7 298.1 141.5 298.1Z" fill="#D1D3D4"/>
<path d="M146.6 295.4H146.5C143.7 295 140.9 294.3 138.2 293.4C137.8 293.3 137.6 292.9 137.8 292.5C137.9 292.1 138.3 291.9 138.7 292.1C141.3 293 144 293.6 146.8 294C147.2 294.1 147.4 294.4 147.4 294.8C147.2 295.1 146.9 295.4 146.6 295.4Z" fill="#D1D3D4"/>
<path d="M55.8004 386C55.4004 386 55.1004 385.7 55.1004 385.4C54.5004 379.5 50.7004 324.9 52.9004 309.5C53.6004 304.5 55.4004 301.3 58.4004 299.9C62.9004 297.7 68.2004 300.6 68.5004 300.7C68.8004 300.9 69.0004 301.3 68.8004 301.7C68.6004 302 68.2004 302.2 67.8004 302C67.8004 302 62.9004 299.3 59.0004 301.2C56.5004 302.4 54.9004 305.3 54.3004 309.8C52.2004 324.8 55.9004 379.7 56.5004 385.4C56.6004 385.6 56.3004 386 55.8004 386Z" fill="white"/>
<path d="M391.6 346.8H362.3V376.1H391.6V346.8Z" fill="white"/>
<path d="M391.501 376.8H362.301C361.901 376.8 361.601 376.5 361.601 376.1V346.8C361.601 346.4 361.901 346.1 362.301 346.1H391.501C391.901 346.1 392.201 346.4 392.201 346.8V376.1C392.201 376.4 391.901 376.8 391.501 376.8ZM363.001 375.4H390.901V347.5H363.001V375.4Z" fill="#D1D3D4"/>
<path d="M380.6 379.8H373.3V387.1H380.6V379.8Z" fill="white"/>
<path d="M380.601 387.8H373.301C372.901 387.8 372.601 387.5 372.601 387.1V379.8C372.601 379.4 372.901 379.1 373.301 379.1H380.601C381.001 379.1 381.301 379.4 381.301 379.8V387.1C381.301 387.5 380.901 387.8 380.601 387.8ZM374.001 386.4H379.901V380.5H374.001V386.4Z" fill="#D1D3D4"/>
<path d="M427.6 346.8H398.3V376.1H427.6V346.8Z" fill="white"/>
<path d="M427.5 376.8H398.2C397.8 376.8 397.5 376.5 397.5 376.1V346.8C397.5 346.4 397.8 346.1 398.2 346.1H427.5C427.9 346.1 428.2 346.4 428.2 346.8V376.1C428.2 376.4 427.9 376.8 427.5 376.8ZM399 375.4H426.9V347.5H399V375.4Z" fill="#D1D3D4"/>
<path d="M416.6 379.8H409.3V387.1H416.6V379.8Z" fill="white"/>
<path d="M416.601 387.8H409.301C408.901 387.8 408.601 387.5 408.601 387.1V379.8C408.601 379.4 408.901 379.1 409.301 379.1H416.601C417.001 379.1 417.301 379.4 417.301 379.8V387.1C417.301 387.5 416.901 387.8 416.601 387.8ZM410.001 386.4H415.901V380.5H410.001V386.4Z" fill="#D1D3D4"/>
<path d="M463.6 346.8H434.3V376.1H463.6V346.8Z" fill="white"/>
<path d="M463.5 376.8H434.2C433.8 376.8 433.5 376.5 433.5 376.1V346.8C433.5 346.4 433.8 346.1 434.2 346.1H463.5C463.9 346.1 464.2 346.4 464.2 346.8V376.1C464.2 376.4 463.9 376.8 463.5 376.8ZM435 375.4H462.9V347.5H435V375.4Z" fill="#D1D3D4"/>
<path d="M452.6 379.8H445.3V387.1H452.6V379.8Z" fill="white"/>
<path d="M452.5 387.8H445.2C444.8 387.8 444.5 387.5 444.5 387.1V379.8C444.5 379.4 444.8 379.1 445.2 379.1H452.5C452.9 379.1 453.2 379.4 453.2 379.8V387.1C453.2 387.5 452.9 387.8 452.5 387.8ZM446 386.4H451.9V380.5H446V386.4Z" fill="#D1D3D4"/>
<path d="M405.9 321.4H391.5V335.8H405.9V321.4Z" fill="white"/>
<path d="M406 336.5H391.5C391.1 336.5 390.8 336.2 390.8 335.8V321.4C390.8 321 391.1 320.7 391.5 320.7H406C406.4 320.7 406.7 321 406.7 321.4V335.8C406.7 336.2 406.4 336.5 406 336.5ZM392.2 335.1H405.2V322.1H392.1L392.2 335.1Z" fill="#D1D3D4"/>
<path d="M425.1 321.4H410.7V335.8H425.1V321.4Z" fill="white"/>
<path d="M425.201 336.5H410.801C410.401 336.5 410.101 336.2 410.101 335.8V321.4C410.101 321 410.401 320.7 410.801 320.7H425.201C425.601 320.7 425.901 321 425.901 321.4V335.8C425.901 336.2 425.601 336.5 425.201 336.5ZM411.401 335.1H424.401V322.1H411.401V335.1Z" fill="#D1D3D4"/>
<path d="M444.3 321.4H429.9V335.8H444.3V321.4Z" fill="white"/>
<path d="M444.4 336.5H430C429.6 336.5 429.3 336.2 429.3 335.8V321.4C429.3 321 429.6 320.7 430 320.7H444.5C444.9 320.7 445.2 321 445.2 321.4V335.8C445.1 336.2 444.7 336.5 444.4 336.5ZM430.6 335.1H443.6V322.1H430.6V335.1Z" fill="#D1D3D4"/>
<path d="M463.501 321.4H449.101V335.8H463.501V321.4Z" fill="white"/>
<path d="M463.5 336.5H449.1C448.7 336.5 448.4 336.2 448.4 335.8V321.4C448.4 321 448.7 320.7 449.1 320.7H463.5C463.9 320.7 464.2 321 464.2 321.4V335.8C464.2 336.2 463.9 336.5 463.5 336.5ZM449.8 335.1H462.8V322.1H449.8V335.1Z" fill="#D1D3D4"/>
<path d="M426.7 289H412.3V309.8H426.7V289Z" fill="white"/>
<path d="M426.701 310.4H412.301C411.901 310.4 411.601 310.1 411.601 309.7V289C411.601 288.6 411.901 288.3 412.301 288.3H426.701C427.101 288.3 427.401 288.6 427.401 289V309.8C427.401 310.2 427.101 310.4 426.701 310.4ZM413.001 309H426.001V289.7H413.001V309Z" fill="#D1D3D4"/>
<path d="M444.3 289H429.9V309.8H444.3V289Z" fill="white"/>
<path d="M444.4 310.4H430C429.6 310.4 429.3 310.1 429.3 309.7V289C429.3 288.6 429.6 288.3 430 288.3H444.5C444.9 288.3 445.2 288.6 445.2 289V309.8C445 310.1 444.7 310.4 444.4 310.4ZM430.6 309H443.6V289.7H430.6V309Z" fill="#D1D3D4"/>
<path d="M461.9 289H447.5V309.8H461.9V289Z" fill="white"/>
<path d="M462 310.4H447.5C447.1 310.4 446.8 310.1 446.8 309.7V289C446.8 288.6 447.1 288.3 447.5 288.3H462C462.4 288.3 462.7 288.6 462.7 289V309.8C462.7 310.2 462.4 310.4 462 310.4ZM448.2 309H461.2V289.7H448.2V309Z" fill="#D1D3D4"/>
<path d="M119.801 128.8H43.1006V134.8H119.801V128.8Z" fill="white"/>
<path d="M119.9 128.8V134.8H43.1002V128.8H119.9ZM119.9 127.3H43.1002C42.3002 127.3 41.7002 127.9 41.7002 128.7V134.7C41.7002 135.5 42.3002 136.1 43.1002 136.1H119.8C120.6 136.1 121.2 135.5 121.2 134.7V128.7C121.3 128 120.7 127.3 119.9 127.3Z" fill="#231F20"/>
<path d="M79.1006 128.8H43.1006V134.8H79.1006V128.8Z" fill="#68E1FD"/>
<path d="M88.0002 119.9H54.4002C54.0002 119.9 53.7002 119.6 53.7002 119.2C53.7002 118.8 54.0002 118.5 54.4002 118.5H88.0002C88.4002 118.5 88.7002 118.8 88.7002 119.2C88.7002 119.6 88.4002 119.9 88.0002 119.9Z" fill="#231F20"/>
<path d="M201.5 118.1H147.4C147 118.1 146.7 117.8 146.7 117.4C146.7 117 147 116.7 147.4 116.7H201.5C201.9 116.7 202.2 117 202.2 117.4C202.2 117.8 201.8 118.1 201.5 118.1Z" fill="#D1D3D4"/>
<path d="M201.5 128.2H147.4C147 128.2 146.7 127.9 146.7 127.5C146.7 127.1 147 126.8 147.4 126.8H201.5C201.9 126.8 202.2 127.1 202.2 127.5C202.2 127.9 201.8 128.2 201.5 128.2Z" fill="#D1D3D4"/>
<path d="M184 138.3H147.4C147 138.3 146.7 138 146.7 137.6C146.7 137.2 147 136.9 147.4 136.9H184C184.4 136.9 184.7 137.2 184.7 137.6C184.7 138 184.4 138.3 184 138.3Z" fill="#D1D3D4"/>
<path d="M330.3 375.4H214V382.8H330.3V375.4Z" fill="white"/>
<path d="M330.301 375.4V382.8H214.001V375.4H330.301ZM330.301 374H214.001C213.201 374 212.601 374.6 212.601 375.4V382.8C212.601 383.6 213.201 384.2 214.001 384.2H330.301C331.101 384.2 331.701 383.6 331.701 382.8V375.4C331.701 374.6 331.001 374 330.301 374Z" fill="#231F20"/>
<path d="M254.4 375.4H214V382.8H254.4V375.4Z" fill="#68E1FD"/>
<path d="M330.3 362.2H214V369.6H330.3V362.2Z" fill="white"/>
<path d="M330.301 362.2V369.6H214.001V362.2H330.301ZM330.301 360.8H214.001C213.201 360.8 212.601 361.4 212.601 362.2V369.6C212.601 370.4 213.201 371 214.001 371H330.301C331.101 371 331.701 370.4 331.701 369.6V362.2C331.701 361.4 331.001 360.8 330.301 360.8Z" fill="#231F20"/>
<path d="M233.4 362.2H214V369.6H233.4V362.2Z" fill="#D1D3D4"/>
<path d="M45.4913 115.935L42.168 119.258L45.4913 122.582L48.8147 119.258L45.4913 115.935Z" fill="#68E1FD"/>
<path d="M466.8 113.8H397.2V183.4H466.8V113.8Z" fill="white"/>
<path d="M466.9 184.2H397.2C396.8 184.2 396.5 183.9 396.5 183.5V113.8C396.5 113.4 396.8 113.1 397.2 113.1H466.9C467.3 113.1 467.6 113.4 467.6 113.8V183.4C467.6 183.8 467.3 184.2 466.9 184.2ZM397.9 182.8H466.2V114.5H398L397.9 182.8Z" fill="#231F20"/>
<path d="M411.6 197.8C414.251 197.8 416.4 195.651 416.4 193C416.4 190.349 414.251 188.2 411.6 188.2C408.949 188.2 406.8 190.349 406.8 193C406.8 195.651 408.949 197.8 411.6 197.8Z" fill="white"/>
<path d="M411.6 198.5C408.6 198.5 406.1 196 406.1 193C406.1 190 408.6 187.5 411.6 187.5C414.6 187.5 417.1 190 417.1 193C417.1 196.1 414.7 198.5 411.6 198.5ZM411.6 188.9C409.3 188.9 407.5 190.7 407.5 193C407.5 195.3 409.3 197.1 411.6 197.1C413.9 197.1 415.7 195.3 415.7 193C415.7 190.8 413.9 188.9 411.6 188.9Z" fill="#231F20"/>
<path d="M428.4 197.8C431.051 197.8 433.2 195.651 433.2 193C433.2 190.349 431.051 188.2 428.4 188.2C425.749 188.2 423.6 190.349 423.6 193C423.6 195.651 425.749 197.8 428.4 197.8Z" fill="white"/>
<path d="M428.4 198.5C425.4 198.5 422.9 196 422.9 193C422.9 190 425.4 187.5 428.4 187.5C431.4 187.5 433.9 190 433.9 193C433.9 196 431.4 198.5 428.4 198.5ZM428.4 188.9C426.1 188.9 424.3 190.7 424.3 193C424.3 195.3 426.1 197.1 428.4 197.1C430.7 197.1 432.5 195.3 432.5 193C432.5 190.8 430.6 188.9 428.4 188.9Z" fill="#231F20"/>
<path d="M445.1 197.8C447.751 197.8 449.9 195.651 449.9 193C449.9 190.349 447.751 188.2 445.1 188.2C442.449 188.2 440.3 190.349 440.3 193C440.3 195.651 442.449 197.8 445.1 197.8Z" fill="white"/>
<path d="M445.1 198.5C442.1 198.5 439.6 196 439.6 193C439.6 190 442.1 187.5 445.1 187.5C448.1 187.5 450.6 190 450.6 193C450.6 196.1 448.2 198.5 445.1 198.5ZM445.1 188.9C442.8 188.9 441 190.7 441 193C441 195.3 442.8 197.1 445.1 197.1C447.4 197.1 449.2 195.3 449.2 193C449.2 190.8 447.4 188.9 445.1 188.9Z" fill="#231F20"/>
<path d="M456.3 175.4H435.6C435.2 175.4 434.9 175.1 434.9 174.7C434.9 174.3 435.2 174 435.6 174H456.3C456.7 174 457 174.3 457 174.7C457 175.1 456.7 175.4 456.3 175.4Z" fill="#D1D3D4"/>
<path d="M397.2 168.5C397.1 168.5 397.1 168.5 397 168.5C396.6 168.4 396.4 168 396.5 167.7C396.5 167.5 398 161.7 407.7 159.4C409 159.1 410.2 158.9 411.4 158.6C419.1 157.1 424.2 156.1 422.3 145.7C421 138.6 426.6 133.2 432.1 128C436.9 123.4 441.5 119.1 441.5 113.8C441.5 113.4 441.8 113.1 442.2 113.1C442.6 113.1 442.9 113.4 442.9 113.8C442.9 119.7 437.9 124.5 433.1 129C427.7 134.1 422.6 139 423.7 145.4C425.8 157.2 419.3 158.4 411.7 159.9C410.5 160.1 409.3 160.4 408 160.7C399.2 162.7 397.9 167.7 397.8 167.9C397.8 168.3 397.5 168.5 397.2 168.5Z" fill="#231F20"/>
<path d="M416.4 183.5C417.6 183.5 421.9 161.8 430.6 161.4C439.3 161 436.9 166 445.9 160.2C454.9 154.4 446.9 146 449.9 140.9C452.9 135.8 466.9 139.2 466.9 139.2" fill="white"/>
<path d="M416.4 184.2C416 184.2 415.7 183.9 415.7 183.5C415.7 183.2 415.8 183 416.1 182.9C416.6 181.8 417.1 180.6 417.4 179.4C419.6 173 423.8 161 430.6 160.7C432.9 160.5 435.2 160.8 437.4 161.7C439.4 162.5 440.4 162.9 445.6 159.6C450.8 156.3 450 152.1 449.1 148C448.6 145.3 448.1 142.7 449.3 140.5C452.4 135 466.4 138.3 467 138.4C467.4 138.5 467.6 138.9 467.5 139.2C467.4 139.6 467 139.8 466.6 139.7C462.8 138.8 452.6 137.3 450.4 141.1C449.4 142.8 449.9 145.2 450.4 147.6C451.2 151.7 452.2 156.8 446.2 160.6C440.7 164.2 439.1 163.8 436.7 162.9C434.8 162.1 432.6 161.7 430.5 161.9C424.6 162.2 420.7 173.6 418.6 179.7C417.5 183.3 417.2 184.2 416.4 184.2Z" fill="#231F20"/>
<path d="M406.6 129C406.9 132.5 410 135 413.5 134.7H413.6C419 133.9 420.2 126.6 416.4 123.2C412.6 119.8 406.4 124.4 406.6 129Z" fill="white"/>
<path d="M412.8 135.4C411.2 135.4 409.7 134.8 408.5 133.8C407 132.6 406.1 130.9 405.9 129C405.9 126 407.7 123.2 410.5 121.9C412.5 120.8 415.1 121.1 416.8 122.6C419 124.6 419.8 127.7 418.9 130.6C418.2 133.1 416.2 134.9 413.6 135.3C413.4 135.4 413.1 135.4 412.8 135.4ZM413.2 122.7C412.4 122.7 411.7 122.9 411 123.2C408.7 124.3 407.3 126.5 407.2 129C407.5 132.1 410.3 134.3 413.4 134C415.4 133.7 417.1 132.2 417.5 130.3C418.2 128 417.5 125.4 415.8 123.7C415.2 123.1 414.2 122.7 413.2 122.7Z" fill="#D1D3D4"/>
<path d="M452.5 133.5L445.1 131.6L447 124.3L452.5 133.5Z" fill="#68E1FD"/>
<path d="M261 215.7C260.6 215.7 260.3 215.4 260.3 215V210.4C260.3 210 260.6 209.7 261 209.7C261.4 209.7 261.7 210 261.7 210.4V215C261.7 215.4 261.4 215.7 261 215.7Z" fill="#231F20"/>
<path d="M261 237.5C260.6 237.5 260.3 237.2 260.3 236.8V232.2C260.3 231.8 260.6 231.5 261 231.5C261.4 231.5 261.7 231.8 261.7 232.2V236.8C261.7 237.2 261.4 237.5 261 237.5Z" fill="#231F20"/>
<path d="M274.199 224.3H269.599C269.199 224.3 268.899 224 268.899 223.6C268.899 223.2 269.199 222.9 269.599 222.9H274.199C274.599 222.9 274.899 223.2 274.899 223.6C274.899 224 274.599 224.3 274.199 224.3Z" fill="#231F20"/>
<path d="M252.4 224.3H247.8C247.4 224.3 247.1 224 247.1 223.6C247.1 223.2 247.4 222.9 247.8 222.9H252.4C252.8 222.9 253.1 223.2 253.1 223.6C253.1 224 252.8 224.3 252.4 224.3Z" fill="#231F20"/>
<path d="M261.6 224.5H260.5C260.1 224.5 259.8 224.2 259.8 223.8C259.8 223.4 260.1 223.1 260.5 223.1H261.6C262 223.1 262.3 223.4 262.3 223.8C262.3 224.2 262 224.5 261.6 224.5Z" fill="#231F20"/>
</svg>
