<svg width="438" height="292" viewBox="0 0 438 292" fill="none" xmlns="http://www.w3.org/2000/svg">
<g clip-path="url(#clip0_30_371)">
<path d="M244.4 31.5L431.9 140.6C437.6 144 439.5 151.3 436.1 157C435 158.8 433.5 160.3 431.7 161.3L202.2 289.8C196.6 293 189.7 293 184 290L7.6999 195.1C0.699904 191.3 -1.90009 182.6 1.89991 175.6C3.19991 173.3 4.9999 171.3 7.2999 170L244.4 31.5Z" fill="#FFD200"/>
<path d="M277.5 102.1C264 98.3002 246.6 107.3 234.8 112.7C217.3 120.9 200.3 130.2 183.9 140.5C170.2 148.9 160.7 157.5 157.3 173.9C156.7 181.2 156.4 188.5 157.3 190.7C159.2 195.5 212.3 242.7 238.9 245.3C265.5 247.9 229.1 183.3 232.3 178.1C235.5 172.9 264.7 156.7 269.1 158.2C273.5 159.7 333.7 195.1 338.5 187.7C353.7 164 304.8 109.8 277.5 102.1Z" fill="#F6F6F6"/>
<path d="M272.6 136.8C283.811 136.8 292.9 130.219 292.9 122.1C292.9 113.982 283.811 107.4 272.6 107.4C261.388 107.4 252.3 113.982 252.3 122.1C252.3 130.219 261.388 136.8 272.6 136.8Z" fill="#505A63"/>
<path d="M258.9 119.7L278.5 131.1C278.5 131.1 287 125.7 286.8 125.4C286.6 125.1 267.6 114.6 267.6 114.6L258.9 119.7Z" fill="#090502"/>
<path d="M257.9 127.1C258.4 127.2 267.3 132.2 267.3 132.2L288.4 119.3L278.8 113.5L257.9 127.1Z" fill="#090502"/>
<path d="M258.9 117.8V119.7L261.9 119.1L258.9 117.8Z" fill="#090502"/>
<path d="M288.501 117.4V119.4L286.101 118.9L288.501 117.4Z" fill="#090502"/>
<path opacity="0.52" d="M341.1 173.4C341.1 173.4 339 184.4 329.5 182.4C320 180.4 277.3 146.4 269.2 148.3C261.1 150.2 229.5 168.8 229.5 168.8L232.4 181.4L271.8 161.4C271.8 161.4 317.3 191.7 332.7 190.6C348.1 189.5 341.1 173.4 341.1 173.4Z" fill="#505A63"/>
<path d="M258.9 117.8L278.5 129.2C278.5 129.2 287 123.8 286.8 123.5C286.6 123.2 267.6 112.7 267.6 112.7L258.9 117.8Z" fill="#505A63"/>
<path d="M341.1 173.4C341.1 173.4 339 184.4 329.5 182.4C320 180.4 277.3 146.4 269.2 148.3C261.1 150.2 229.5 168.8 229.5 168.8L232.4 181.4L271.8 161.4C271.8 161.4 317.3 191.7 332.7 190.6C348.1 189.5 341.1 173.4 341.1 173.4Z" fill="#376F7A"/>
<path d="M243 237.3C239 237 235.2 235.3 231.7 233.4C227.2 231 222.7 228.5 218.2 226C208.5 220.7 199.3 214.6 190.5 208C183.5 202.7 176.4 197.6 169.6 192.2C164.9 188.4 160.2 184.2 156.9 179C156.6 184.3 156.6 189 157.2 190.6C159 195.4 212.2 242.6 238.8 245.2C245.6 245.9 248.3 242.2 248.6 236.2C246.8 237.1 244.9 237.4 243 237.3Z" fill="#68E1FD"/>
<path opacity="0.52" d="M243 237.3C239 237 235.2 235.3 231.7 233.4C227.2 231 222.7 228.5 218.2 226C208.5 220.7 199.3 214.6 190.5 208C183.5 202.7 176.4 197.6 169.6 192.2C164.9 188.4 160.2 184.2 156.9 179C156.6 184.3 156.6 189 157.2 190.6C159 195.4 212.2 242.6 238.8 245.2C245.6 245.9 248.3 242.2 248.6 236.2C246.8 237.1 244.9 237.4 243 237.3Z" fill="#090502"/>
<path d="M193.9 184.8C205.995 184.8 215.8 177.726 215.8 169C215.8 160.274 205.995 153.2 193.9 153.2C181.805 153.2 172 160.274 172 169C172 177.726 181.805 184.8 193.9 184.8Z" fill="#505A63"/>
<path d="M229.5 160.8C235.299 160.8 240 158.158 240 154.9C240 151.642 235.299 149 229.5 149C223.701 149 219 151.642 219 154.9C219 158.158 223.701 160.8 229.5 160.8Z" fill="#505A63"/>
<path d="M220 157.3C220 157.3 222.1 152.8 225.4 152.3C228.7 151.8 235.2 150.7 237.6 152.8C240 154.9 239.8 155.9 239.8 155.9C237.8 158.9 234.5 160.7 230.9 160.7C224.4 161.1 220.7 158.6 220 157.3Z" fill="#505A63"/>
<path d="M229.9 158.1C233.601 158.1 236.6 155.862 236.6 153.1C236.6 150.339 233.601 148.1 229.9 148.1C226.2 148.1 223.2 150.339 223.2 153.1C223.2 155.862 226.2 158.1 229.9 158.1Z" fill="#090502"/>
<path d="M229.5 154.5C233.752 154.5 237.2 152.038 237.2 149C237.2 145.962 233.752 143.5 229.5 143.5C225.247 143.5 221.8 145.962 221.8 149C221.8 152.038 225.247 154.5 229.5 154.5Z" fill="#505A63"/>
<path d="M221.9 149.2C222.1 152.1 225.5 154.4 229.6 154.4C233.7 154.4 237.3 152 237.3 148.9C237.3 148.5 237.2 148.1 237.1 147.7C233.6 151.9 227 151.3 221.9 149.2Z" fill="#505A63"/>
<path d="M250.5 152.1C256.299 152.1 261 149.459 261 146.2C261 142.942 256.299 140.3 250.5 140.3C244.701 140.3 240 142.942 240 146.2C240 149.459 244.701 152.1 250.5 152.1Z" fill="#505A63"/>
<path d="M240.9 148.7C240.9 148.7 242.9 144.2 246.3 143.7C249.7 143.2 256.1 142.1 258.5 144.2C260.9 146.3 260.7 147.3 260.7 147.3C258.7 150.3 255.4 152.1 251.8 152.1C245.4 152.4 241.7 150 240.9 148.7Z" fill="#505A63"/>
<path d="M250.801 149.5C254.501 149.5 257.501 147.261 257.501 144.5C257.501 141.739 254.501 139.5 250.801 139.5C247.1 139.5 244.101 141.739 244.101 144.5C244.101 147.261 247.1 149.5 250.801 149.5Z" fill="#090502"/>
<path d="M250.5 145.8C254.752 145.8 258.2 143.338 258.2 140.3C258.2 137.263 254.752 134.8 250.5 134.8C246.247 134.8 242.8 137.263 242.8 140.3C242.8 143.338 246.247 145.8 250.5 145.8Z" fill="#505A63"/>
<path d="M242.8 140.6C243 143.5 246.4 145.8 250.5 145.8C254.6 145.8 258.2 143.4 258.2 140.3C258.2 139.9 258.1 139.5 258 139.1C254.6 143.2 248 142.6 242.8 140.6Z" fill="#505A63"/>
<path d="M207.3 139L215.1 134.4C216 133.9 217.1 133.9 218 134.4L218.1 134.5C219.4 135.3 219.8 137 219 138.3C218.7 138.7 218.4 139 218 139.2L210.1 143.7C209.2 144.2 208.1 144.2 207.3 143.6C206 142.8 205.7 141.1 206.5 139.8C206.7 139.5 207 139.2 207.3 139Z" fill="#505A63"/>
<path d="M226.7 127.4L234.5 122.8C235.4 122.3 236.5 122.3 237.4 122.8L237.5 122.9C238.8 123.7 239.2 125.4 238.4 126.7C238.2 127.1 237.8 127.4 237.4 127.6L229.5 132.1C228.6 132.6 227.5 132.6 226.7 132C225.4 131.2 225.1 129.5 225.9 128.2C226.1 127.9 226.4 127.6 226.7 127.4Z" fill="#505A63"/>
<path d="M257.9 127.1V125.1L260.7 125.5L259.5 126.6L257.9 127.1Z" fill="#090502"/>
<path d="M257.9 125.1C258.4 125.2 267.3 130.2 267.3 130.2L288.4 117.4L278.8 111.6L257.9 125.1Z" fill="#505A63"/>
<path d="M185.4 178.5C188.106 178.5 190.3 177.202 190.3 175.6C190.3 173.999 188.106 172.7 185.4 172.7C182.694 172.7 180.5 173.999 180.5 175.6C180.5 177.202 182.694 178.5 185.4 178.5Z" fill="#090502"/>
<path d="M180.5 175.6V172H190.2V175.6" fill="#090502"/>
<path d="M185.4 174.9C188.106 174.9 190.3 173.602 190.3 172C190.3 170.398 188.106 169.1 185.4 169.1C182.694 169.1 180.5 170.398 180.5 172C180.5 173.602 182.694 174.9 185.4 174.9Z" fill="#F62435"/>
<path d="M186.8 167.4C189.507 167.4 191.7 166.102 191.7 164.5C191.7 162.898 189.507 161.6 186.8 161.6C184.094 161.6 181.9 162.898 181.9 164.5C181.9 166.102 184.094 167.4 186.8 167.4Z" fill="#090502"/>
<path d="M181.9 164.5V161H191.6V164.5" fill="#090502"/>
<path d="M186.8 163.9C189.507 163.9 191.7 162.602 191.7 161C191.7 159.398 189.507 158.1 186.8 158.1C184.094 158.1 181.9 159.398 181.9 161C181.9 162.602 184.094 163.9 186.8 163.9Z" fill="#F4BD21"/>
<path d="M201.8 167.4C204.507 167.4 206.7 166.102 206.7 164.5C206.7 162.898 204.507 161.6 201.8 161.6C199.094 161.6 196.9 162.898 196.9 164.5C196.9 166.102 199.094 167.4 201.8 167.4Z" fill="#090502"/>
<path d="M196.9 164.5V161H206.6V164.5" fill="#090502"/>
<path d="M201.8 163.9C204.507 163.9 206.7 162.602 206.7 161C206.7 159.398 204.507 158.1 201.8 158.1C199.094 158.1 196.9 159.398 196.9 161C196.9 162.602 199.094 163.9 201.8 163.9Z" fill="#68E1FD"/>
<path d="M200.2 177.3C202.906 177.3 205.1 176.002 205.1 174.4C205.1 172.798 202.906 171.5 200.2 171.5C197.494 171.5 195.3 172.798 195.3 174.4C195.3 176.002 197.494 177.3 200.2 177.3Z" fill="#090502"/>
<path d="M195.3 174.4V170.9H205V174.4" fill="#090502"/>
<path d="M200.2 173.8C202.906 173.8 205.1 172.502 205.1 170.9C205.1 169.298 202.906 168 200.2 168C197.494 168 195.3 169.298 195.3 170.9C195.3 172.502 197.494 173.8 200.2 173.8Z" fill="#3AD84A"/>
<path d="M286.801 123.5V125.4L285.501 126.3L285.101 124.9L286.801 123.5Z" fill="#090502"/>
<path d="M169 107.7L180.5 113.2C181.8 113.8 182.4 115.4 181.7 116.7C181.5 117.2 181.1 117.6 180.7 117.8L153.6 133.7C152.4 134.5 150.8 134.1 150 132.8L143.4 122.5" fill="#090502"/>
<path d="M112 78.1L203.4 25.5C205.4 24.4 207.9 25 209 27C209.4 27.6 209.5 28.4 209.6 29.1V83.9C209.6 85.1 209 86.3 207.9 86.9L110.5 143C109.5 143.6 108.1 143.3 107.5 142.2C107.3 141.9 107.2 141.5 107.2 141.1V86.6C107.2 83 109 79.8 112 78.1Z" fill="#0066FF"/>
<path d="M203.301 29.6002L114.701 80.6002C112.801 81.7002 111.601 83.8002 111.601 86.0002V127C111.601 128.2 112.601 129.2 113.801 129.2C114.201 129.2 114.601 129.1 114.901 128.9L205.301 77.0002C206.001 76.6002 206.401 75.9002 206.401 75.1002V31.3002C206.401 30.1002 205.501 29.2002 204.301 29.2002C204.001 29.3002 203.601 29.4002 203.301 29.6002Z" fill="white"/>
<path d="M168.311 105.186C168.54 103.992 167.891 102.864 166.861 102.666C165.83 102.467 164.809 103.274 164.579 104.467C164.349 105.66 164.998 106.788 166.029 106.987C167.059 107.185 168.081 106.379 168.311 105.186Z" fill="#505A63"/>
<path d="M118.3 82.7998C118.852 82.7998 119.3 82.3521 119.3 81.7998C119.3 81.2475 118.852 80.7998 118.3 80.7998C117.748 80.7998 117.3 81.2475 117.3 81.7998C117.3 82.3521 117.748 82.7998 118.3 82.7998Z" fill="#505A63"/>
<path d="M121.4 81.2002C121.953 81.2002 122.4 80.7525 122.4 80.2002C122.4 79.6479 121.953 79.2002 121.4 79.2002C120.848 79.2002 120.4 79.6479 120.4 80.2002C120.4 80.7525 120.848 81.2002 121.4 81.2002Z" fill="#68E1FD"/>
<path d="M59.9004 187.4C60.2004 187.9 83.4004 200.9 83.4004 200.9L99.5004 191.9L106.8 187.7L97.8004 182.5L83.4004 174.1L59.9004 187.4Z" fill="#505A63"/>
<path d="M83.5 200.8V209.9L106.8 196.3V187.6L83.5 200.8Z" fill="#090502"/>
<path d="M59.9004 187.4V196.3L83.5004 209.9V200.8L59.9004 187.4Z" fill="#090502"/>
<path d="M84 192.4C88.9706 192.4 93 190.161 93 187.4C93 184.638 88.9706 182.4 84 182.4C79.0294 182.4 75 184.638 75 187.4C75 190.161 79.0294 192.4 84 192.4Z" fill="#090502"/>
<path d="M84.1004 159.3C85.1004 159.3 85.8004 160.1 85.8004 161V187.1C85.8004 188.1 85.0004 188.8 84.1004 188.8C83.1004 188.8 82.4004 188 82.4004 187.1V161C82.4004 160 83.2004 159.3 84.1004 159.3Z" fill="#505A63"/>
<path d="M84.1002 166.9C89.2917 166.9 93.5002 162.692 93.5002 157.5C93.5002 152.309 89.2917 148.1 84.1002 148.1C78.9087 148.1 74.7002 152.309 74.7002 157.5C74.7002 162.692 78.9087 166.9 84.1002 166.9Z" fill="#F62435"/>
<path d="M84.4002 148.1C86.9002 150.4 88.3002 153.6 88.3002 157C88.6002 161.5 85.5002 165.5 81.2002 166.4C86.1002 168 91.4002 165.3 93.0002 160.4C94.6002 155.5 91.9002 150.2 87.0002 148.6C86.2002 148.3 85.3002 148.2 84.4002 148.1Z" fill="#F62435"/>
<path d="M80.0008 152.7C78.1008 154.3 77.1008 156.8 77.5008 159.3C76.7008 157.6 76.5008 155.6 77.1008 153.7C78.1008 150.4 80.0008 152.7 80.0008 152.7Z" fill="white"/>
<path d="M250.401 71.0999C261.06 71.0999 269.701 65.011 269.701 57.4999C269.701 49.9888 261.06 43.8999 250.401 43.8999C239.741 43.8999 231.101 49.9888 231.101 57.4999C231.101 65.011 239.741 71.0999 250.401 71.0999Z" fill="#B16753"/>
<path d="M250.4 55.3996C258.409 55.3996 264.9 52.7581 264.9 49.4996C264.9 46.2411 258.409 43.5996 250.4 43.5996C242.392 43.5996 235.9 46.2411 235.9 49.4996C235.9 52.7581 242.392 55.3996 250.4 55.3996Z" fill="#505A63"/>
<path d="M251.4 49.5998C252.6 47.9998 253.7 46.2998 254.9 44.4998C256.4 42.0998 257.9 39.5998 259.2 37.0998C260.4 34.8998 261.5 32.4998 262.3 30.0998C263.2 27.4998 264 24.7998 264.6 22.0998C264.7 21.3998 264.9 20.6998 265 19.8998C265 19.5998 265.1 19.5998 265.1 19.6998V18.9998C265.2 17.4998 265.3 16.0998 265.3 14.5998C265.4 9.4998 264.4 4.4998 262.4 -0.200195C257.2 7.3998 253.7 15.9998 252.1 25.0998C252 25.6998 251.9 26.1998 251.8 26.6998C251.7 27.4998 251.7 27.6998 251.6 28.0998L251.5 29.4998C251.4 30.1998 251.4 30.8998 251.3 31.5998C251.1 34.2998 251 36.9998 251 39.5998C251 42.8998 251.1 46.2998 251.4 49.5998ZM257.6 9.5998L258.7 8.3998C258.6 8.6998 258.6 9.0998 258.6 9.3998C258.2 9.3998 257.9 9.4998 257.6 9.5998Z" fill="#3AD84A"/>
<path d="M251.8 49.8996C251.9 47.8996 251.9 45.8996 251.9 43.6996C251.9 40.8996 251.8 37.9996 251.5 35.1996C251.3 32.5996 250.9 30.0996 250.3 27.5996C249.7 24.8996 248.9 22.1996 247.9 19.5996C247.6 18.8996 247.4 18.1996 247.1 17.5996C247 17.2996 247 17.2996 247 17.3996L246.7 16.7996C246 15.4996 245.3 14.1996 244.5 12.9996C241.8 8.69961 238.3 4.99961 234.1 2.09961C233.8 11.2996 235.5 20.4996 239.1 28.8996C239.3 29.3996 239.5 29.8996 239.7 30.3996L240.3 31.6996L240.9 32.8996C241.2 33.4996 241.5 34.0996 241.9 34.7996C243.1 37.1996 244.5 39.4996 246 41.6996C247.8 44.4996 249.7 47.1996 251.8 49.8996ZM235.3 12.8996C235.4 12.3996 235.5 11.7996 235.6 11.2996C235.7 11.5996 235.9 11.8996 236.1 12.1996C235.8 12.3996 235.6 12.5996 235.3 12.8996Z" fill="#3AD84A"/>
<path d="M251.8 50.8997C251.2 49.7997 250.6 48.6997 249.9 47.4997C249 45.9997 248 44.4997 246.9 42.9997C246 41.6997 244.9 40.3997 243.8 39.2997C242.6 37.9997 241.3 36.8997 239.9 35.7997L238.8 34.9997C238.6 34.8997 238.7 34.8997 238.7 34.8997L238.4 34.6997C237.6 34.1997 236.8 33.6997 236 33.2997C233.2 31.7997 230.1 30.9997 226.9 30.6997C229.7 35.7997 233.6 40.1997 238.3 43.5997L239.1 44.1997L239.8 44.6997L240.5 45.1997L241.6 45.8997C243.1 46.7997 244.5 47.5997 246 48.2997C247.9 49.1997 249.9 50.0997 251.8 50.8997ZM231.1 36.1997C231 35.8997 230.9 35.5997 230.7 35.2997C230.9 35.3997 231.1 35.5997 231.3 35.5997C231.2 35.7997 231.1 35.9997 231.1 36.1997Z" fill="#3AD84A"/>
<path d="M251.4 49.5998C252.6 47.9998 253.7 46.2998 254.9 44.4998C256.4 42.0998 257.9 39.5998 259.2 37.0998C260.4 34.8998 261.5 32.4998 262.3 30.0998C263.2 27.4998 264 24.7998 264.6 22.0998C264.7 21.3998 264.9 20.6998 265 19.8998C265 19.5998 265.1 19.5998 265.1 19.6998V18.9998C265.2 17.4998 265.3 16.0998 265.3 14.5998C265.4 9.4998 264.4 4.4998 262.4 -0.200195C257.2 7.3998 253.7 15.9998 252.1 25.0998C252 25.6998 251.9 26.1998 251.8 26.6998C251.7 27.4998 251.7 27.6998 251.6 28.0998L251.5 29.4998C251.4 30.1998 251.4 30.8998 251.3 31.5998C251.1 34.2998 251 36.9998 251 39.5998C251 42.8998 251.1 46.2998 251.4 49.5998Z" fill="#3AD84A"/>
<path d="M251.8 49.8996C251.9 47.8996 251.9 45.8996 251.9 43.6996C251.9 40.8996 251.8 37.9996 251.5 35.1996C251.3 32.5996 250.9 30.0996 250.3 27.5996C249.7 24.8996 248.9 22.1996 247.9 19.5996C247.6 18.8996 247.4 18.1996 247.1 17.5996C247 17.2996 247 17.2996 247 17.3996L246.7 16.7996C246 15.4996 245.3 14.1996 244.5 12.9996C241.8 8.69961 238.3 4.99961 234.1 2.09961C233.8 11.2996 235.5 20.4996 239.1 28.8996C239.3 29.3996 239.5 29.8996 239.7 30.3996L240.3 31.6996L240.9 32.8996C241.2 33.4996 241.5 34.0996 241.9 34.7996C243.1 37.1996 244.5 39.4996 246 41.6996C247.8 44.4996 249.7 47.1996 251.8 49.8996Z" fill="#3AD84A"/>
<path d="M251.8 50.8997C251.2 49.7997 250.6 48.6997 249.9 47.4997C249 45.9997 248 44.4997 246.9 42.9997C246 41.6997 244.9 40.3997 243.8 39.2997C242.6 37.9997 241.3 36.8997 239.9 35.7997L238.8 34.9997C238.6 34.8997 238.7 34.8997 238.7 34.8997L238.4 34.6997C237.6 34.1997 236.8 33.6997 236 33.2997C233.2 31.7997 230.1 30.9997 226.9 30.6997C229.7 35.7997 233.6 40.1997 238.3 43.5997L239.1 44.1997L239.8 44.6997L240.5 45.1997L241.6 45.8997C243.1 46.7997 244.5 47.5997 246 48.2997C247.9 49.1997 249.9 50.0997 251.8 50.8997Z" fill="#3AD84A"/>
<path d="M272.9 99.9001L274.6 103.1L278.9 100.8L277.9 97.6001L272.9 99.9001Z" fill="#FFBFAE"/>
<path d="M280.801 97.3003C280.801 97.3003 290.801 104.5 293.301 111.5C295.801 118.5 289.701 126.2 289.701 126.2" fill="#F62435"/>
<path d="M291.701 202.2L296.701 199.8L294.701 194.5L290.801 196.1" fill="#090502"/>
<path d="M298.201 188.3H292.601C292.501 190.6 292.001 193.4 290.001 194.3C289.201 194.8 286.201 195.7 285.201 195.3C284.201 194.9 281.101 194.2 280.701 194.4C280.301 194.6 278.901 195.5 281.801 198.1C284.701 200.7 290.901 202.4 291.801 202.1C292.701 201.8 290.801 196.6 293.101 197.4C295.601 198.3 294.201 203.9 294.601 204.4C295.401 204.9 296.201 205.2 297.101 205.4C297.801 205.1 298.401 204.7 299.001 204.3C299.001 199.1 298.601 193.7 298.201 188.3Z" fill="#090502"/>
<path d="M262.001 214.7L266.901 212.1L264.601 206.9L260.801 208.7" fill="#090502"/>
<path d="M268.501 198.8L262.201 200.9C262.201 204.5 261.101 207.1 257.401 208C255.801 208.4 254.601 207.9 253.101 207.6C252.301 207.4 251.401 207.7 250.901 208.4C250.101 209.5 251.101 210.5 251.901 211.3C254.901 213.8 261.201 215.2 262.101 214.9C263.001 214.6 260.801 209.5 263.201 210.2C265.801 210.9 264.601 216.7 265.001 217.1C265.801 217.5 266.701 217.8 267.601 218C268.201 217.6 268.801 217.2 269.401 216.8C269.201 211.3 269.201 204.2 268.501 198.8Z" fill="#090502"/>
<path d="M287.401 120.4C290.201 131.1 292.301 142 293.701 152.9C295.901 170.5 301.001 191.8 300.501 192.4C300.001 193 296.101 197.6 286.901 195.3L276.301 131.6" fill="#F62435"/>
<path d="M272.001 134.6C272.001 134.6 261.601 155.7 259.301 168.4C257.001 181.1 259.301 202.2 259.301 202.2C259.301 202.2 267.401 205.6 274.101 203.4C274.101 203.4 275.101 172.2 276.201 169.4C277.301 166.6 285.001 154.7 285.301 142.3C285.601 129.9 282.701 123.1 282.701 123.1" fill="#F62435"/>
<path d="M269.5 120.2C268.9 116 268.4 111.4 269.6 107.3C271.7 105 274 102.9 276.5 101C276.5 101 280 96.8002 283.1 99.2002C286.6 101.8 290.9 118.3 290 124.8C289.1 130.8 284 132.2 278.1 133.7C276.1 134.2 274.1 134.6 272 134.7C271 129.9 270.1 125 269.5 120.2Z" fill="#F4BD21"/>
<path d="M267.7 88.1003C267.7 88.1003 268.7 99.6002 270.8 100.5C272.9 101.4 276.4 99.0002 277 97.0002C277.6 95.0002 277 94.7003 275 94.6003C273 94.5003 274.4 94.5002 273.1 94.0002C270.4 93.0002 274.1 86.5003 267.7 88.1003Z" fill="#FFBFAE"/>
<path d="M270.701 83C271.701 82.5 272.8 82.2 273.9 81.9C276.4 81.2 279.101 81.8 281.101 83.5C283.201 85.4 284.5 87.9 284.9 90.7C285.1 93.1 284.601 96.1 282.601 97.7C280.101 99.7 275.7 101.3 273.8 98.3C273.5 97.8 273.201 97.3 273.001 96.7C272.101 94.5 270.801 92.4 269.201 90.6C268.001 89.2 267.6 87.3 268.3 85.5C268.7 84.4 269.601 83.5 270.701 83Z" fill="#090502"/>
<path d="M251.401 107.8C252.001 107.2 253.001 107 253.801 107.4L253.601 107C253.601 106.9 253.601 106.9 253.601 106.8C253.101 106.5 253.401 105.6 254.101 105.7C255.301 105.9 256.101 106 256.601 107.2C257.001 108.2 257.301 109.2 257.501 110.2C259.101 112 260.801 113.7 262.801 115.2C263.401 115.7 262.601 116.5 261.901 116.1L261.701 115.9C261.601 116.1 261.501 116.2 261.301 116.3C261.501 116.6 261.301 117 261.001 117.1L260.901 117.2C261.301 117.6 261.701 117.9 262.101 118.3C262.701 118.9 261.901 119.6 261.201 119.2C260.501 118.8 259.901 118.2 259.201 117.7C259.501 118 259.801 118.3 260.101 118.6C260.601 119.2 259.801 120 259.201 119.5C257.801 117.9 256.201 116.5 254.701 115C253.901 114.7 253.001 114.4 252.201 114C251.301 113.5 250.101 112.9 250.101 111.8C250.201 110.2 250.601 108.9 251.401 107.8Z" fill="#FFBFAE"/>
<path d="M248.2 105.9C248.6 105.3 249.1 105.3 249.7 105L249.2 104.6C248.6 104.2 248 103.6 247.6 103C247.4 102.6 247.8 101.9 248.3 102.1C249.8 102.7 251.1 103.4 252.4 104.3C253.6 105 254.4 107 254.9 107.9C255.3 108.6 254.2 109.2 253.9 108.5L253.6 107.9C253.5 108 253.4 108.1 253.3 108.1C253.3 108.2 253.4 108.3 253.5 108.4C253.6 108.5 253.6 108.6 253.6 108.8C253.6 108.9 253.7 108.9 253.7 109C253.8 109.6 254.3 110.7 253.5 111.1C253.4 111.2 253.3 111.2 253.1 111.2L254.1 112.2C254.3 112.4 254.3 112.8 254.1 113C254 113.1 253.9 113.1 253.8 113.2C253.8 113.5 253.5 113.7 253.3 113.7C253.2 113.7 253.2 113.7 253.2 113.7C251.5 113 249.1 112 248 110.4C247.3 108.9 247.4 107.2 248.2 105.9Z" fill="#FFBFAE"/>
<path d="M258.201 110.4L266.701 117.9L267.201 114.5C267.601 112.4 268.201 110.4 269.101 108.5C274.701 111.3 278.401 118.3 276.101 124C274.001 126.9 271.301 129.9 268.201 130.3C261.801 131.1 252.801 118.6 252.801 118.6C253.101 115.3 258.201 110.4 258.201 110.4Z" fill="#F62435"/>
<path d="M279.7 83.4002C279.7 75.4002 293.2 74.0002 295.3 81.4002C296.2 84.9002 294.1 88.5002 290.6 89.4002C289.9 89.6002 289.3 89.6002 288.6 89.6002C285.9 89.4002 283.2 88.7002 280.8 87.4002" fill="#090502"/>
</g>
<defs>
<clipPath id="clip0_30_371">
<rect width="438" height="292" fill="white"/>
</clipPath>
</defs>
</svg>
