<svg width="500" height="500" viewBox="0 0 500 500" fill="none" xmlns="http://www.w3.org/2000/svg">
<path d="M307.2 353.7H64.8996L26.0996 399.5L355.8 405.4L307.2 353.7Z" fill="#0066FF"/>
<path d="M355.8 406.1L26.1999 400.2C25.8999 400.2 25.6999 400 25.5999 399.8C25.4999 399.5 25.4999 399.2 25.6999 399L64.4999 353.2C64.5999 353 64.7999 352.9 65.0999 352.9H307.4C307.6 352.9 307.8 353 307.9 353.1L356.4 404.8C356.6 405 356.6 405.3 356.5 405.6C356.3 405.9 356.1 406.1 355.8 406.1ZM27.6999 398.8L354.1 404.6L306.9 354.4H65.1999L27.6999 398.8Z" fill="#D1D3D4"/>
<path d="M247.299 282.4C247.299 282.4 270.999 330.8 271.999 365C271.999 365 295.699 373 295.699 376.4C295.699 379.8 260.299 379.5 260.299 379.5L232.699 311.4L247.299 282.4Z" fill="#B16753"/>
<path d="M262.9 380.2H260.3C260 380.2 259.7 380 259.6 379.7L232 311.6C231.9 311.4 231.9 311.2 232 311L246.5 282C246.6 281.8 246.9 281.6 247.1 281.6C247.4 281.6 247.6 281.8 247.7 282C247.9 282.5 271.3 330.5 272.5 364.4C278.7 366.5 296.3 372.8 296.3 376.3C296.3 376.7 296.1 377 295.9 377.3C293.3 380 270.9 380.2 262.9 380.2ZM260.8 378.8C276.9 378.9 293.9 378 295 376.3C295 374.8 284.3 369.9 271.7 365.7C271.4 365.6 271.2 365.3 271.2 365C270.3 334.6 251 292.1 247.2 284.1L233.5 311.5L260.8 378.8Z" fill="#231F20"/>
<path d="M176.599 276.3C176.599 276.3 228.599 276.3 249.999 282.5L237.699 316.8L157.699 296.6L176.599 276.3Z" fill="#231F20"/>
<path d="M237.8 317.5C237.7 317.5 237.7 317.5 237.6 317.5L157.6 297.3C157.4 297.2 157.2 297 157.1 296.8C157 296.6 157.1 296.3 157.3 296.1L176.2 275.9C176.3 275.8 176.5 275.7 176.7 275.7C177.2 275.7 229.1 275.8 250.3 281.9C250.5 282 250.7 282.1 250.7 282.3C250.8 282.5 250.8 282.7 250.7 282.9L238.4 317C238.3 317.3 238.1 317.5 237.8 317.5ZM159.1 296.1L237.3 315.9L249.1 282.9C228.5 277.3 181.3 277 177 277L159.1 296.1Z" fill="#231F20"/>
<path d="M189 207.4C188.5 208.2 200.5 228.3 203.3 229.7C206.1 231.1 238.4 223.9 245.8 222.2C253.2 220.5 257.6 221.5 258.2 224.6C258.8 227.7 250.9 237.1 248.1 238.6C245.3 240.1 212.4 258.9 201.9 255.8C191.4 252.7 164.6 223.4 164.6 223.4" fill="#B16753"/>
<path d="M204.7 256.7C203.7 256.7 202.7 256.6 201.7 256.3C191.2 253.1 165.2 224.9 164.1 223.7C163.8 223.4 163.8 222.9 164.1 222.7C164.4 222.5 164.9 222.4 165.1 222.7C165.4 223 191.9 251.8 202.1 254.9C208.2 256.7 224 250.8 246.7 238.3L247.7 237.7C250.4 236.3 258 227.1 257.4 224.5C257.3 223.8 256.8 223.1 256.2 222.8C254.3 221.6 250.7 221.6 245.9 222.7C245.5 222.8 206.5 232 202.9 230.2C199.8 228.7 188.8 210.1 188.2 207.7C188.1 207.4 188.1 207.1 188.3 206.8C188.5 206.5 189 206.4 189.3 206.6C189.5 206.8 189.7 207 189.6 207.3C190.1 209.3 201 227.5 203.5 228.8C205.7 229.9 232 224.4 245.5 221.2C250.7 220 254.7 220 256.9 221.5C257.9 222.1 258.6 223.1 258.8 224.2C259.5 227.8 251.1 237.5 248.3 238.9L247.3 239.5C232.9 247.7 214.4 256.7 204.7 256.7Z" fill="#231F20"/>
<path d="M252.199 239.6C252.199 239.6 255.199 231.2 254.799 229.9C254.399 228.6 247.499 225.2 247.499 225.2C247.499 225.2 241.299 225.8 241.899 224.5C242.499 223.2 251.199 219.5 254.799 220C258.399 220.5 268.399 224.5 269.999 226.3C271.599 228.1 267.699 235.7 265.399 237C263.099 238.3 249.499 245.1 252.199 239.6Z" fill="#231F20"/>
<path d="M253.1 242.4C252.6 242.5 252 242.3 251.6 242C251 241.4 251 240.6 251.5 239.4C252.9 235.6 254.3 231 254 230.2C253.7 229.4 250.3 227.5 247.2 226C243.7 226.3 241.7 226.1 241.2 225.3C241 225 241 224.6 241.1 224.3C241.9 222.5 251.2 218.9 254.7 219.4C258.3 219.9 268.5 223.9 270.3 225.9C270.9 226.7 271 227.7 270.8 228.7C270.3 231.8 267.5 236.7 265.6 237.8C265.5 237.6 257 242.4 253.1 242.4ZM247.4 224.4C247.5 224.4 247.6 224.4 247.7 224.5C249.8 225.5 254.9 228.2 255.4 229.7C255.9 231.2 253.8 237.3 252.8 239.9V240C252.4 240.7 252.5 241 252.5 241C253.3 241.9 260.8 238.8 264.8 236.4C266.2 235.6 268.8 231.2 269.3 228.4C269.5 227.3 269.3 226.9 269.2 226.8C267.8 225.2 258.2 221.3 254.5 220.7C251.5 220.3 244.5 223.2 242.7 224.5C244.3 224.6 245.9 224.6 247.4 224.4Z" fill="#231F20"/>
<path d="M236.2 293.5C236.2 293.5 259.9 341.9 260.9 376.1C260.9 376.1 284.6 384.1 284.6 387.5C284.6 390.9 249.2 390.6 249.2 390.6L221.6 322.5L236.2 293.5Z" fill="#B16753"/>
<path d="M251.8 391.3H249.2C248.9 391.3 248.6 391.1 248.5 390.8L221 322.8C220.9 322.6 220.9 322.4 221 322.2L235.5 293.2C235.6 293 235.9 292.8 236.1 292.8C236.4 292.8 236.6 293 236.7 293.2C236.9 293.7 260.3 341.7 261.5 375.6C267.7 377.7 285.2 384 285.2 387.5C285.2 387.9 285.1 388.2 284.8 388.5C282.3 391.1 259.9 391.3 251.8 391.3ZM249.7 389.8C265.7 389.9 282.8 389 283.9 387.3C283.9 385.8 273.2 380.9 260.7 376.7C260.4 376.6 260.2 376.3 260.2 376C259.3 345.5 240 303.1 236.2 295.1L222.5 322.5L249.7 389.8Z" fill="#231F20"/>
<path d="M183.6 280.7L239 290.5L223 339.2C223 339.2 149.7 352.9 123.9 341.2C98.0997 329.5 105.4 276.3 105.4 276.3L183.6 280.7Z" fill="#231F20"/>
<path d="M156.4 346.6C141.6 346.6 130.6 345 123.6 341.8C112.8 336.9 106.1 324 104.2 304.4C103.4 295 103.5 285.6 104.6 276.2C104.7 275.8 105 275.6 105.4 275.6L183.6 280H183.7L239.1 289.8C239.5 289.9 239.8 290.3 239.7 290.7V290.8L223.7 339.5C223.6 339.7 223.4 339.9 223.1 340C222.9 340 204.5 343.5 183.2 345.4C173.2 346.1 164.3 346.6 156.4 346.6ZM106 277C105.3 283.1 100.7 329.8 124.2 340.4C148.5 351.4 216.4 339.5 222.5 338.4L238 291L183.4 281.4L106 277Z" fill="#231F20"/>
<path d="M189.8 185.9L171.1 183C171.1 183 162 181.2 150 187.9C140.6 193.1 128.5 205.3 122.4 215.8C101 252.6 103.3 310.3 103.3 310.3C103.3 310.3 166.3 293.9 179.5 285C189.9 278 188.4 275 188.4 275C188.4 275 182 264 183 255.2C184 246.4 199.5 197.7 189.8 185.9Z" fill="#0066FF"/>
<path d="M154 237.8C154 237.8 184.6 275.1 195.8 272.6C207 270.1 251.3 248.1 251.3 248.1C251.3 248.1 263 245.4 266.2 241.4C269.4 237.4 271.6 228.8 269.8 228.1C268 227.4 252.4 235.2 252.4 235.2C252.4 235.2 256.1 230.5 254.3 228.5C252.5 226.5 243.9 235.9 243.9 235.9L198.3 247.8L175 214" fill="#B16753"/>
<path d="M194.599 273.4C182.299 273.4 154.599 239.7 153.399 238.2C153.199 237.9 153.199 237.5 153.499 237.2C153.799 237 154.199 237 154.499 237.3C154.799 237.7 184.899 274.3 195.599 271.8C206.599 269.3 250.499 247.5 250.999 247.3L251.099 247.2C251.199 247.2 262.599 244.5 265.599 240.8C268.799 236.8 270.299 229.4 269.499 228.6C268.299 228.4 259.999 232 252.599 235.7C252.199 235.9 251.799 235.7 251.599 235.4C251.499 235.1 251.499 234.8 251.699 234.6C252.799 233.2 254.699 230 253.699 228.8C251.999 228.8 247.199 233.2 244.399 236.2C244.299 236.3 244.199 236.4 243.999 236.4L198.299 248.3C197.999 248.4 197.699 248.3 197.499 248L174.299 214.2C174.099 213.8 174.199 213.4 174.599 213.2C174.899 213 175.299 213.1 175.499 213.4L198.399 246.8L243.299 235.1C244.799 233.5 250.699 227.3 253.499 227.3C253.999 227.3 254.399 227.5 254.699 227.8C255.899 229.2 255.099 231.5 254.199 233.2C259.599 230.6 268.299 226.6 269.899 227.2C270.399 227.4 270.799 227.9 270.899 228.4C271.599 231.1 269.299 238.3 266.599 241.6C263.399 245.6 252.499 248.2 251.399 248.5C248.699 249.8 206.799 270.5 195.799 273.1C195.499 273.3 195.099 273.4 194.599 273.4Z" fill="#231F20"/>
<path d="M175 214.8C174.7 214.8 174.5 214.7 174.4 214.4L166.2 201.3C166 201 166.1 200.5 166.5 200.3C166.8 200.1 167.3 200.2 167.5 200.5L175.7 213.7C175.9 214 175.8 214.5 175.5 214.7C175.3 214.7 175.1 214.7 175 214.8Z" fill="#231F20"/>
<path d="M154 238.5C153.8 238.5 153.6 238.4 153.5 238.3L140 224.5C139.7 224.3 139.5 223.8 139.7 223.5C139.9 223.2 140.4 223 140.7 223.2C140.8 223.3 140.9 223.4 141 223.5L154.5 237.3C154.8 237.6 154.8 238.1 154.5 238.3C154.3 238.4 154.1 238.5 154 238.5Z" fill="#231F20"/>
<path d="M235.3 225.4C235.3 225.4 240.7 217.4 242.5 217C244.3 216.6 254.8 219.2 253 220.3C251.2 221.4 245.6 221.2 245.6 221.2C245.6 221.2 243.4 224.5 241.3 227.1" fill="#B16753"/>
<path d="M241.3 227.9C241.1 227.9 241 227.8 240.8 227.7C240.5 227.4 240.5 227 240.7 226.7C242.8 224.2 244.9 220.9 244.9 220.9C245 220.7 245.3 220.6 245.5 220.6C247.7 220.7 249.8 220.6 251.9 220.1C250.1 219.1 243.8 217.6 242.5 217.9C241.6 218.1 238.3 222.2 235.7 226C235.5 226.3 235 226.4 234.7 226.2C234.4 226 234.3 225.5 234.5 225.2C235.8 223.3 240.3 216.9 242.2 216.5C243.6 216.2 253 218 253.7 219.9C253.9 220.4 253.7 220.9 253.2 221.2C251.5 222.2 247.2 222.2 245.8 222.2C245.2 223.1 243.4 225.7 241.7 227.8C241.7 227.8 241.5 227.9 241.3 227.9Z" fill="#231F20"/>
<path d="M264.2 227.4C263.8 226.4 261.7 227.2 262.2 228.2C262.7 229.2 264.6 228.4 264.2 227.4Z" fill="white"/>
<path d="M259.2 226.7C258.4 227.5 259.8 228.9 260.6 228.2C261.4 227.5 260 225.9 259.2 226.7Z" fill="white"/>
<path d="M261 229.3C260.2 230.1 261.8 231.6 262.5 230.8C263.2 230 261.7 228.5 261 229.3Z" fill="white"/>
<path d="M258.5 229C257 229.6 257.6 231 259.1 230.4C260.6 229.8 260 228.3 258.5 229Z" fill="white"/>
<path d="M248.799 224.1C248.599 224.1 248.499 224 248.499 223.9C248.399 223.7 248.499 223.5 248.699 223.4L254.099 221.4C254.299 221.3 254.499 221.4 254.599 221.6C254.699 221.8 254.599 222 254.399 222.1L248.999 224.1C248.899 224.1 248.799 224.1 248.799 224.1Z" fill="white"/>
<path d="M253.8 224.4C253.7 224.4 253.7 224.4 253.6 224.3L249.5 221.8C249.3 221.7 249.3 221.5 249.4 221.3C249.5 221.1 249.7 221.1 249.9 221.2L254 223.7C254.2 223.8 254.2 224 254.1 224.2C254 224.3 253.9 224.4 253.8 224.4Z" fill="white"/>
<path d="M170.3 179.2C163.4 179.4 156 175.9 154 169.3C155.9 170.1 157.9 170.5 159.9 170.4C155.7 163.5 152.5 155.8 152.6 147.7C152.7 139.6 156.7 131.3 163.9 127.7C167.8 125.7 172.2 125.2 176.5 125.2C179.5 125.2 182.6 125.4 185 127.2L178.7 122.2C187.1 120.7 195.6 123.2 201.9 128.9L199.9 122.3C206.1 124.9 211.1 129.7 213.9 135.8C216 140.2 217.8 151.4 209.2 150C209.6 150.1 203.4 159.4 202.7 160.2C199.9 163.2 196.7 165.5 193.5 168C186.8 173.4 180.1 178.3 171 179L170.3 179.2Z" fill="#000001"/>
<path d="M169.699 179.9C162.999 179.9 155.399 176.4 153.299 169.5C153.199 169.1 153.399 168.7 153.799 168.6C153.999 168.5 154.199 168.6 154.299 168.6C155.699 169.2 157.199 169.5 158.699 169.7C154.099 161.8 151.899 154.7 151.999 147.8C152.099 138.8 156.699 130.7 163.699 127.2C167.099 125.5 171.199 124.7 176.599 124.6C177.999 124.6 179.499 124.7 180.899 124.9L178.399 122.9C178.099 122.7 177.999 122.2 178.299 121.9C178.399 121.8 178.599 121.7 178.799 121.6C186.499 120.2 194.499 122.2 200.699 126.9L199.399 122.6C199.299 122.2 199.499 121.8 199.799 121.7C199.999 121.6 200.199 121.6 200.399 121.7C206.799 124.3 211.899 129.3 214.799 135.5C216.399 139 217.699 145.6 215.199 148.9C213.999 150.5 212.199 151.1 209.799 150.8C208.499 153.6 203.499 160.7 203.399 160.8C201.199 163.1 198.799 165.2 196.199 167.1L194.099 168.7C186.999 174.4 180.299 179.2 171.199 179.8H170.399L169.699 179.9ZM155.299 170.5C157.799 175.9 164.499 178.6 170.299 178.4H170.999C179.699 177.8 186.099 173.1 193.099 167.6L195.199 165.9C197.699 164.1 199.999 162 202.199 159.8C204.499 156.7 206.599 153.4 208.499 150V149.9C208.599 149.5 208.899 149.2 209.299 149.3C211.399 149.6 212.899 149.2 213.799 148C215.799 145.3 214.799 139.4 213.199 136.1C210.699 130.7 206.399 126.3 200.999 123.6L202.599 128.7C202.699 129 202.599 129.3 202.299 129.5C201.999 129.7 201.699 129.6 201.399 129.4C195.699 124.3 188.099 121.8 180.499 122.6L185.499 126.5C185.799 126.7 185.899 127.2 185.599 127.5C185.399 127.8 184.899 127.9 184.599 127.7C182.299 126 179.299 125.8 176.499 125.9C171.299 125.9 167.399 126.7 164.199 128.3C157.699 131.6 153.399 139.2 153.299 147.7C153.199 154.6 155.499 161.9 160.499 170C160.599 170.2 160.599 170.5 160.499 170.7C160.399 170.9 160.099 171.1 159.899 171.1C158.399 171.2 156.799 171 155.299 170.5Z" fill="#231F20"/>
<path d="M209 162.9C209 162.9 213 174.1 211.2 175.8C209.4 177.5 205.3 175.1 205.3 175.1" fill="#B16753"/>
<path d="M209.399 177.2C207.799 177.1 206.299 176.6 204.899 175.8C204.599 175.6 204.399 175.2 204.599 174.8C204.799 174.5 205.299 174.3 205.599 174.5C206.499 175.1 209.499 176.4 210.599 175.3C211.499 174.5 210.099 168.4 208.199 163.2C208.099 162.8 208.299 162.4 208.599 162.3C208.999 162.2 209.399 162.4 209.499 162.7C210.499 165.5 213.499 174.6 211.499 176.4C210.999 176.9 210.199 177.2 209.399 177.2Z" fill="#231F20"/>
<path d="M210.8 149.8C214 154.1 211.1 160.9 210 165.4C208.4 171.8 206.6 178.2 204.7 184.5C203.5 188.5 192.9 186 191.3 184.3L189 200.8C189 200.8 183.6 200.9 176.1 194.9C168.6 188.9 169 186.8 169 186.8L174.3 168.4C174.3 168.4 181.3 170.2 187.4 162.9C193.5 155.6 196.5 142.8 196.5 142.8C196.5 142.8 207.6 145.6 210.8 149.8Z" fill="#B16753"/>
<path d="M188.9 201.6C188.2 201.6 182.9 201.4 175.5 195.5C168.1 189.6 168 187.3 168.1 186.7L173.4 168.2C173.5 167.8 173.9 167.6 174.3 167.7C174.6 167.8 180.9 169.3 186.7 162.4C192.7 155.3 195.6 142.7 195.7 142.6C195.7 142.4 195.9 142.2 196 142.1C196.2 142 196.4 142 196.6 142C197.1 142.1 208.1 144.8 211.4 149.2C214.3 153.1 212.7 158.6 211.4 163C211.1 163.9 210.9 164.7 210.7 165.4C209.1 171.8 207.3 178.2 205.4 184.6C205.2 185.5 204.4 186.6 202.4 187C199.2 187.7 194.3 186.7 192 185.4L189.8 200.8C189.6 201.3 189.3 201.6 188.9 201.6ZM169.6 187.1C169.6 187.1 169.9 189.2 176.5 194.4C182.3 199 186.8 199.9 188.4 200.1L190.6 184.3C190.7 183.9 191 183.6 191.4 183.7C191.6 183.7 191.7 183.8 191.8 183.9C192.7 184.8 198.4 186.6 201.9 185.8C203 185.5 203.7 185.1 203.9 184.4C205.8 178.1 207.6 171.7 209.2 165.3C209.4 164.5 209.6 163.7 209.9 162.8C211.1 158.7 212.6 153.6 210.1 150.3C207.6 146.9 199.3 144.5 196.9 143.9C196.2 146.7 193.2 157.1 187.8 163.6C182.4 170.1 176.6 169.7 174.7 169.5L169.6 187.1Z" fill="#231F20"/>
<path d="M205.599 179.7C205.599 179.7 203.499 179 198.199 172.8Z" fill="white"/>
<path d="M205.6 180.4C205.5 180.4 205.4 180.4 205.4 180.4C205.2 180.3 202.9 179.4 197.7 173.3C197.4 173 197.5 172.5 197.8 172.3C198.1 172.1 198.6 172.1 198.8 172.4C203.8 178.2 205.9 179.1 205.9 179.1C206.3 179.2 206.5 179.7 206.3 180C206.2 180.3 205.9 180.4 205.6 180.4Z" fill="#231F20"/>
<path d="M195.599 164C195.799 162.3 195.599 160.7 194.899 159.1C194.499 157.9 193.999 156.7 193.299 155.6C192.599 154.5 191.399 153.8 190.099 153.7C188.899 153.7 187.899 154.2 187.099 155.1C186.299 156 185.799 157 185.499 158.1C184.099 163 185.299 168.2 188.899 171.9L188.599 171.4" fill="#B16753"/>
<path d="M188.9 172.6C188.7 172.6 188.5 172.5 188.4 172.4C184.7 168.5 183.4 163 184.9 157.9C185.2 156.7 185.8 155.6 186.7 154.6C187.6 153.6 188.9 153 190.3 153C191.8 153.1 193.2 153.9 194.1 155.2C194.8 156.3 195.4 157.6 195.8 158.9C196.5 160.6 196.8 162.4 196.5 164.2C196.4 164.6 196 164.8 195.6 164.7C195.2 164.6 195 164.2 195 163.8C195.2 162.3 194.9 160.7 194.3 159.4C194 158.2 193.5 157.1 192.8 156.1C192.2 155.2 191.2 154.6 190.2 154.5C189.3 154.5 188.4 154.9 187.8 155.6C187.1 156.4 186.6 157.3 186.4 158.3C185.2 162.6 186.1 167.3 189 170.7C189.2 170.7 189.4 170.9 189.5 171.1L189.8 171.6C190 171.9 189.9 172.3 189.6 172.5C189.2 172.6 189 172.6 188.9 172.6Z" fill="#231F20"/>
<path d="M191.2 184.4C191.2 184.4 186.1 181.4 184.5 177C184.5 177 182.5 186.9 190.1 191.8L191.2 184.4Z" fill="#231F20"/>
<path d="M190.199 192.4C190.099 192.4 189.899 192.4 189.799 192.3C181.799 187.2 183.799 176.9 183.799 176.8C183.899 176.4 184.199 176.1 184.599 176.2C184.899 176.2 185.099 176.4 185.199 176.7C186.699 180.8 191.499 183.7 191.599 183.8C191.799 183.9 191.999 184.2 191.899 184.5L190.899 191.9C190.899 192.1 190.699 192.4 190.499 192.5C190.399 192.4 190.299 192.4 190.199 192.4ZM185.099 179.4C184.999 182.3 185.599 187.2 189.699 190.4L190.499 184.7C188.299 183.3 186.499 181.6 185.099 179.4Z" fill="#231F20"/>
<path d="M207.246 157.952C207.773 156.736 207.831 155.59 207.375 155.392C206.919 155.195 206.122 156.02 205.595 157.236C205.068 158.453 205.01 159.599 205.466 159.796C205.922 159.994 206.719 159.168 207.246 157.952Z" fill="#231F20"/>
<path d="M208.8 156.9C208.6 156.9 208.5 156.8 208.4 156.7L204.4 153.5C204.1 153.2 204.1 152.8 204.3 152.5C204.5 152.2 205 152.1 205.3 152.4L209.3 155.6C209.6 155.8 209.7 156.3 209.4 156.6C209.2 156.9 209 157 208.8 156.9Z" fill="#231F20"/>
<path d="M238.999 291L190.499 286.4C190.099 286.4 189.899 286.1 189.899 285.7C189.899 285.3 190.199 285.1 190.599 285.1L238.999 289.7C239.399 289.7 239.599 290 239.599 290.4C239.599 290.8 239.299 291.1 238.999 291Z" fill="white"/>
<path d="M464.9 272.2H378.9V288.7H464.9V272.2Z" fill="white"/>
<path d="M464.9 289.4H378.9C378.5 289.4 378.2 289.1 378.1 288.6V272.1C378.1 271.7 378.4 271.4 378.9 271.3H464.9C465.3 271.3 465.6 271.6 465.7 272.1V288.6C465.6 289.1 465.3 289.4 464.9 289.4ZM379.6 287.9H464.1V272.9H379.6V287.9Z" fill="#231F20"/>
<path d="M378.9 272.2L361.3 280.4V291.6L378.9 288.7V272.2Z" fill="white"/>
<path d="M361.3 292.4C361.1 292.4 360.9 292.3 360.8 292.2C360.6 292.1 360.5 291.8 360.5 291.6V280.4C360.5 280.1 360.7 279.8 360.9 279.7L378.5 271.5C378.7 271.4 379 271.4 379.2 271.5C379.4 271.6 379.5 271.9 379.6 272.1V288.6C379.6 289 379.3 289.3 379 289.3L361.4 292.3L361.3 292.4ZM362.1 280.9V290.7L378.2 288V273.4L362.1 280.9Z" fill="#231F20"/>
<path d="M378.9 288.7V384.3C378.9 384.3 463.1 385.1 463.1 384.3V288.7H378.9Z" fill="white"/>
<path d="M438.1 385.4C425.6 385.4 406.9 385.3 378.8 385C378.4 385 378.1 384.7 378.1 384.2V288.6C378.1 288.2 378.4 287.8 378.9 287.8H463.1C463.5 287.8 463.8 288.1 463.9 288.5V384.1C463.9 384.3 463.8 384.5 463.7 384.6C463.5 385 463 385.4 438.1 385.4ZM379.6 383.5C410.8 383.8 456.8 384.1 462.3 383.6V289.4H379.6V383.5Z" fill="#231F20"/>
<path d="M361.3 291.6V370L378.9 384.2V288.7L361.3 291.6Z" fill="white"/>
<path d="M378.9 385C378.7 385 378.6 384.9 378.4 384.8L360.8 370.5C360.6 370.4 360.5 370.1 360.5 369.9V291.5C360.5 291.1 360.8 290.8 361.1 290.8L378.7 287.8C378.9 287.8 379.1 287.8 379.3 288C379.5 288.1 379.6 288.3 379.6 288.6V384.2C379.6 384.5 379.4 384.8 379.2 384.9C379.1 384.9 379 385 378.9 385ZM362.1 369.6L378.2 382.6V289.5L362.1 292.2V369.6Z" fill="#231F20"/>
<path d="M375.2 294.4L364.6 296V367.4L375.2 374.7V294.4Z" fill="#231F20"/>
<path d="M375.2 375.4C375.1 375.4 374.9 375.4 374.8 375.3L364.2 368C364 367.9 363.9 367.6 363.9 367.4V296C363.9 295.6 364.2 295.3 364.5 295.3L375.1 293.7C375.5 293.6 375.9 293.9 375.9 294.3V294.4V374.7C375.9 375 375.7 375.2 375.5 375.3C375.5 375.4 375.4 375.4 375.2 375.4ZM365.3 367.1L374.5 373.4V295.3L365.3 296.7V367.1Z" fill="#231F20"/>
<path d="M375.2 333.4C375.1 333.4 375 333.4 375 333.4L364.8 329.7C364.4 329.6 364.2 329.2 364.4 328.8C364.6 328.4 364.9 328.2 365.3 328.4L375.5 332.1C375.9 332.2 376.1 332.6 375.9 333C375.8 333.3 375.6 333.5 375.2 333.4Z" fill="white"/>
<path d="M375.2 371.9C375.1 371.9 374.9 371.9 374.8 371.8L366.8 366.7C366.6 366.6 366.5 366.3 366.5 366.1L366.8 350.9C366.8 350.7 366.9 350.4 367.1 350.3C367.3 350.2 367.6 350.2 367.8 350.3L375.5 353.9C375.9 354.1 376 354.5 375.9 354.9C375.7 355.3 375.3 355.4 374.9 355.3L368.2 352.2L367.9 365.8L375.6 370.7C375.9 370.9 376 371.4 375.8 371.7C375.7 371.7 375.5 371.9 375.2 371.9Z" fill="white"/>
<path d="M367.6 351.5C367.3 351.5 367 351.3 366.9 351C366.8 350.6 367 350.2 367.4 350.1L375.1 348.1C375.5 348 375.9 348.2 376 348.5C376.1 348.9 375.9 349.3 375.6 349.4H375.5L367.8 351.4L367.6 351.5Z" fill="white"/>
<path d="M364.6 367.5C364.3 367.5 364 367.3 363.9 367C363.8 366.6 364 366.2 364.4 366.1L367 365.3C367.4 365.2 367.8 365.4 367.9 365.8C368 366.2 367.8 366.6 367.4 366.7L364.8 367.5H364.6Z" fill="white"/>
<path d="M209.5 373C215.3 367.6 221.2 356.5 221.7 348.4C222.2 338.4 213 327.8 205.8 322C196.7 314.8 185.7 310.4 174.7 306.5C163.7 302.6 152.6 298.7 142.9 292.3C128.2 282.5 117.1 266.1 114.1 248.6C111.9 235.9 118.3 215.7 100.1 212.7C91.2998 211.2 82.3998 215.9 76.3998 222.5C68.5998 231 64.7998 242.4 62.2998 253.6C56.5998 279.4 56.9998 306.9 66.6998 331.5C76.3998 356.1 95.9998 377.2 121 385.7C144.9 393.9 174.5 391.5 197.2 381C201.7 379 205.8 376.3 209.5 373Z" fill="#D9B504"/>
<path d="M152.2 391.3C141.6 391.4 131 389.7 120.9 386.4C96.9 378.2 76.4 357.8 66.1 331.7C57 308.6 55.4 281.5 61.6 253.4C63.8 243.7 67.3 231.3 75.9 221.9C82.8 214.4 92.1 210.6 100.3 211.9C114.5 214.3 114.4 226.7 114.4 237.7C114.3 241.3 114.5 244.9 114.9 248.4C117.8 265.5 128.4 281.7 143.3 291.6C152.2 297.5 162.5 301.3 172.5 304.9L174.9 305.8C186.2 309.9 197 314.2 206.2 321.4C214 327.6 222.9 338.4 222.3 348.4C221.8 357.2 215.5 368.3 209.9 373.5C206.2 376.8 202 379.6 197.5 381.6C183.3 388.1 167.8 391.3 152.2 391.3ZM96.9 213.1C88.9 213.1 81.6 217.9 77 222.9C70.5 230 66.2 239.5 63.1 253.7C56.9 281.5 58.4 308.3 67.5 331.1C77.6 356.7 97.7 376.8 121.3 384.9C144.2 392.7 173.9 390.9 196.9 380.3C201.3 378.4 205.3 375.7 208.9 372.5C214.3 367.4 220.4 356.5 220.8 348.4C221.3 339 212.7 328.6 205.2 322.7C196.3 315.6 185.5 311.3 174.3 307.3L171.9 306.4C161.8 302.8 151.4 299 142.3 292.9C127.1 282.8 116.2 266.2 113.2 248.7C112.7 245.1 112.5 241.4 112.7 237.7C112.7 226.8 112.8 215.5 99.9 213.4C99 213.2 98 213.1 96.9 213.1Z" fill="#231F20"/>
<path d="M432.601 203.4C432.601 203.4 456.801 212.7 454.901 223C453.001 233.3 443.401 271.3 443.401 271.3H435.401C435.401 271.3 448.201 228.5 447.401 223C446.601 217.5 432.601 212.6 432.601 212.6V203.4Z" fill="#231F20"/>
<path d="M443.4 272H435.4C435.2 272 435 271.9 434.8 271.7C434.7 271.5 434.6 271.3 434.7 271.1C439.1 256.3 447.3 227.3 446.7 223.1C446.1 218.9 436.2 214.6 432.4 213.3C432.1 213.2 431.9 212.9 431.9 212.6V203.4C431.9 203.2 432 202.9 432.2 202.8C432.4 202.7 432.6 202.6 432.9 202.7C433.9 203.1 457.6 212.4 455.6 223.1C453.7 233.2 444.1 271.1 444 271.4C444 271.8 443.7 272 443.4 272ZM436.4 270.5H442.8C444 265.8 452.4 232.2 454.2 222.8C455.8 214.4 437.8 206.3 433.4 204.4V211.9C436.2 212.9 447.4 217.4 448.2 222.7C448.8 228 438.3 264 436.4 270.5Z" fill="#231F20"/>
<path d="M429.9 117.7L393.7 143.4V250H429.9V117.7Z" fill="#88949C"/>
<path d="M429.9 117.7V250H393.7V143.4L429.9 117.7ZM429.9 116.2C429.6 116.2 429.3 116.3 429 116.5L392.8 142.1C392.4 142.4 392.2 142.8 392.2 143.3V250C392.2 250.8 392.9 251.5 393.7 251.5H429.9C430.7 251.5 431.4 250.8 431.4 250V117.7C431.4 117.1 431.1 116.6 430.6 116.4C430.4 116.3 430.2 116.2 429.9 116.2Z" fill="#231F20"/>
<path d="M435.4 117.7H429.9V249.9H435.4V117.7Z" fill="#231F20"/>
<path d="M435.4 117.7V250H429.9V117.7H435.4ZM435.4 116.3H429.9C429.1 116.3 428.5 116.9 428.4 117.7V250C428.4 250.8 429 251.4 429.9 251.4H435.4C436.2 251.4 436.9 250.8 436.9 250V117.7C436.9 116.9 436.2 116.3 435.4 116.3Z" fill="#231F20"/>
<path d="M414.6 268.6H450C450.9 268.6 451.6 269.3 451.6 270.2V270.7C451.6 271.6 450.9 272.3 450 272.3H414.6C413.7 272.3 413 271.6 413 270.7V270.2C413 269.3 413.7 268.6 414.6 268.6Z" fill="#231F20"/>
<path d="M450 272.9H414.6C413.3 272.9 412.3 271.9 412.3 270.6V270.2C412.3 268.9 413.3 267.9 414.6 267.9H450C451.3 267.9 452.3 268.9 452.3 270.2V270.6C452.3 271.9 451.3 272.9 450 272.9ZM414.6 269.4C414.1 269.4 413.8 269.8 413.8 270.2V270.6C413.8 271.1 414.2 271.4 414.6 271.4H450C450.5 271.4 450.8 271 450.8 270.6V270.2C450.8 269.7 450.4 269.4 450 269.4H414.6Z" fill="#231F20"/>
<path d="M395 230.9C394.6 230.9 394.3 230.5 394.3 230.1C394.3 229.8 394.5 229.5 394.9 229.4L427.6 223.2C428 223.1 428.4 223.4 428.4 223.8C428.5 224.2 428.2 224.6 427.8 224.6L395.1 230.9H395Z" fill="#D1D3D4"/>
<path d="M410.6 227.2C410.2 227.2 409.9 226.9 409.9 226.6C408.8 217.7 404.4 201.1 394.6 195.5C394.3 195.3 394.1 194.8 394.3 194.5C394.5 194.2 395 194 395.3 194.2C405.5 200.1 410.2 217.2 411.3 226.4C411.4 226.8 411.1 227.1 410.6 227.2Z" fill="#D1D3D4"/>
<path d="M418.4 200.2H418.3C417.9 200.1 417.7 199.7 417.7 199.3C420.7 185.2 427.2 182.6 427.5 182.5C427.9 182.4 428.3 182.6 428.4 182.9C428.5 183.3 428.3 183.7 428 183.8C428 183.8 422 186.2 419.2 199.5C419 199.9 418.7 200.2 418.4 200.2Z" fill="#D1D3D4"/>
<path d="M415.5 226.8C415.1 226.8 414.8 226.5 414.8 226.1C414.8 220.9 415.1 215.7 415.8 210.5C415.9 210.1 416.2 209.8 416.6 209.9C417 209.9 417.3 210.3 417.2 210.7C416.6 215.8 416.2 221 416.2 226.1C416.2 226.5 415.9 226.8 415.5 226.8Z" fill="#D1D3D4"/>
<path d="M397.6 153.1C397.5 153.1 397.4 153.1 397.3 153C397.1 152.9 396.9 152.6 396.9 152.4V147.9C396.9 147.7 397 147.5 397.2 147.3L412.4 136.4C412.6 136.2 412.9 136.2 413.2 136.3C413.4 136.4 413.6 136.7 413.6 136.9V141.6C413.6 141.8 413.5 142.1 413.3 142.2L398 153C397.9 153.1 397.7 153.1 397.6 153.1ZM398.3 148.3V151L412.1 141.3V138.4L398.3 148.3Z" fill="#D1D3D4"/>
<path d="M405.801 147.4C405.401 147.4 405.101 147.1 405.101 146.7V142.2C405.101 141.8 405.401 141.5 405.801 141.5C406.201 141.5 406.501 141.8 406.501 142.2V146.7C406.501 147 406.201 147.4 405.801 147.4Z" fill="#D1D3D4"/>
<path d="M423 135.9C421.6 135.9 420.5 134.3 420.5 132.4C420.5 130.5 421.6 128.9 423 128.9C424.4 128.9 425.4 130.5 425.4 132.4C425.4 134.3 424.4 135.9 423 135.9ZM423 130.3C422.6 130.3 422 131.1 422 132.4C422 133.7 422.6 134.5 423 134.5C423.4 134.5 424 133.7 424 132.4C424 131.1 423.4 130.3 423 130.3Z" fill="#D1D3D4"/>
<path d="M407.5 191.6C407.4 191.6 407.2 191.6 407.1 191.5C406.9 191.4 406.8 191.1 406.8 190.9V180.8C406.8 180.5 406.9 180.3 407.2 180.2C409.4 179 416.8 175.2 417.7 175C417.9 175 418.1 175 418.3 175.1C418.5 175.2 418.6 175.5 418.6 175.7V186C418.6 186.3 418.4 186.5 418.2 186.6L407.9 191.5C407.7 191.5 407.6 191.6 407.5 191.6ZM408.2 181.2V189.7L417 185.5V176.8C415.2 177.6 411.1 179.7 408.2 181.2Z" fill="#D1D3D4"/>
<path d="M402.4 172.1C402.3 172.1 402.1 172.1 402 172C401.8 171.9 401.7 171.6 401.7 171.4V161.3C401.7 161 401.9 160.8 402.1 160.7C404.3 159.5 411.7 155.7 412.6 155.5C412.8 155.4 413.1 155.5 413.2 155.6C413.4 155.7 413.5 155.9 413.5 156.2V166.5C413.5 166.8 413.3 167 413.1 167.1L402.8 172.1C402.6 172 402.5 172.1 402.4 172.1ZM403.1 161.7V170.2L411.9 166V157.3C410.1 158.1 406 160.2 403.1 161.7Z" fill="#D1D3D4"/>
<path d="M398.5 230.1C398.4 230.1 398.2 230.1 398.1 230C397.9 229.9 397.8 229.7 397.8 229.5C397.6 228.2 397.5 226.8 397.6 225.4C397.5 224.5 397.8 223.6 398.2 222.9C398.5 222.5 398.9 222.2 399.4 222C399.2 221.7 399 221.4 399 221C398.9 220.2 399.1 219.4 399.6 218.8C399.8 218.5 400.2 218.2 400.5 218C401.4 217.6 402.4 217.7 403.2 218.2C404.3 218.9 404.6 220.3 404 221.4C404.2 221.5 404.4 221.6 404.5 221.7C404.9 222 405.3 222.5 405.5 222.9C405.7 223.6 405.9 224.4 406 225.1C406.1 225.5 406.1 225.8 406.2 225.9C406.3 226 406.3 226.8 406.4 227.9C406.4 228.3 406.2 228.6 405.8 228.7C400.5 229.8 399 230.1 398.5 230.1ZM401.6 219.1C401.4 219.1 401.2 219.1 401 219.2C400.8 219.3 400.7 219.4 400.6 219.6C400.3 219.9 400.2 220.3 400.3 220.7C400.3 221 400.5 221.3 400.8 221.3C401.2 221.4 401.4 221.8 401.3 222.2C401.3 222.4 401.1 222.5 401 222.6C400.7 222.8 400.4 222.9 400.1 223C399.8 223.1 399.4 223.3 399.2 223.6C398.9 224.1 398.8 224.7 398.8 225.4C398.8 226.3 398.8 227.5 398.9 228.5C400.1 228.3 402.7 227.8 404.6 227.4C404.6 226.8 404.5 226.3 404.5 226.2C404.5 226.1 404.4 225.7 404.3 225.3C404.2 224.7 404.1 224 403.9 223.4C403.8 223.1 403.6 222.9 403.4 222.7C403.1 222.5 402.7 222.4 402.3 222.4C401.9 222.4 401.6 222 401.6 221.6C401.6 221.4 401.8 221.1 402 221C402.3 220.8 402.5 220.5 402.6 220.1C402.6 219.7 402.5 219.4 402.1 219.2C402.1 219.2 401.9 219.2 401.6 219.1Z" fill="#D1D3D4"/>
<path d="M427.701 217.5C427.401 217.5 427.101 217.3 427.001 217C427.001 216.9 424.001 209.6 419.801 210.2C418.101 210.5 416.501 211.1 415.101 212.2C413.901 213 412.801 213.8 411.401 212.8C410.901 212.5 410.601 212 410.601 211.4C410.601 211 410.701 210.6 410.801 210.2C410.601 210.2 410.501 210.2 410.301 210.1C409.801 209.9 409.501 209.5 409.401 209C409.001 207.4 410.401 204.7 413.001 201.8C416.701 197.7 427.101 196 427.501 195.9C427.901 195.9 428.301 196.2 428.301 196.6C428.301 197 428.101 197.3 427.701 197.4C427.601 197.4 417.401 199 414.001 202.8C410.801 206.4 410.601 208.5 410.801 208.8C411.401 208.5 411.901 208.1 412.401 207.7C412.901 207.2 413.301 206.7 413.801 206.2C414.101 206 414.601 206.1 414.801 206.4C415.001 206.6 415.001 207 414.801 207.2C414.401 207.7 413.901 208.2 413.401 208.7C412.701 209.4 412.101 210.3 411.901 211.3C411.901 211.4 412.001 211.5 412.101 211.6C412.601 212 412.901 211.8 414.101 211C415.701 209.8 417.501 209 419.401 208.7C424.801 207.9 428.001 216.1 428.201 216.4C428.301 216.8 428.201 217.2 427.801 217.3C427.801 217.4 427.701 217.5 427.701 217.5Z" fill="#D1D3D4"/>
<path d="M415.5 204.9C415.3 204.9 415.1 204.8 415 204.7C414.8 204.4 414.8 204 415.1 203.7L416.1 202.9C416.4 202.7 416.9 202.7 417.1 203.1C417.3 203.4 417.3 203.8 417 204L416 204.8C415.8 204.9 415.6 204.9 415.5 204.9Z" fill="#D1D3D4"/>
<path d="M405.6 223.7C405.2 223.7 404.9 223.4 404.9 223C404.9 222.9 404.9 222.7 406.2 217.8C406.3 217.4 406.8 217.2 407.1 217.4C407.4 217.5 407.6 217.9 407.6 218.2C407 220.3 406.4 222.7 406.3 223C406.4 223.4 406.1 223.7 405.6 223.7C405.7 223.7 405.7 223.7 405.6 223.7Z" fill="#D1D3D4"/>
<path d="M336 399.4C329.6 399.4 325.4 395.4 324.6 391.3C324.5 390.8 324.4 390.2 324.4 389.7C322.1 388.8 320 387.7 317.9 386.3C310.3 381.3 304.1 373.3 299 361.8C286.5 333.6 286.5 302.6 286.5 272.6V271.7C286.5 251.4 284.1 224.3 262.7 223.3C262.3 223.3 262 222.9 262 222.5C262 222.1 262.3 221.8 262.7 221.8C285.3 222.9 287.9 250.8 287.9 271.7V272.5C287.9 302.4 287.9 333.2 300.3 361.1C305.3 372.4 311.3 380.2 318.7 385C320.5 386.2 322.5 387.2 324.5 388.1C325 385.2 327.3 382.7 331 381.1C334.4 379.6 338.6 379.4 343.7 380.5C345.2 380.7 346.6 381.3 347.7 382.4C348.5 383.3 348.9 384.5 348.8 385.7C348.7 387.3 348 388.8 346.8 389.9C344.7 391.8 341.6 392.1 339.6 392.2C335 392.4 330.3 391.7 326 390.2C326 390.5 326.1 390.7 326.1 391C326.9 394.4 330.7 398 336.4 397.9C355.7 397.5 370.6 378.3 373.3 360.7C373.4 360.3 373.7 360 374.1 360.1C374.5 360.2 374.8 360.5 374.7 360.9C371.8 379.1 356.4 399 336.4 399.4H336ZM325.9 388.7C330.2 390.3 334.8 391 339.4 390.8C341.3 390.7 344 390.4 345.8 388.9C346.7 388.1 347.3 386.9 347.4 385.7C347.5 384.9 347.2 384.1 346.7 383.5C345.8 382.7 344.7 382.2 343.5 382.1C338.7 381.1 334.8 381.3 331.7 382.6C328.2 384 326.2 386.2 325.9 388.7Z" fill="#231F20"/>
</svg>
